//Event file generated from Sappy .s format.
	#include "MPlayDef.event"

	#define	song1C_grp  voicegroup000
	#define	song1C_pri  0
	#define	song1C_rev  0
	#define	song1C_mvl  127
	#define	song1C_key  0
	#define	song1C_tbs  1
	#define	song1C_exg  0
	#define	song1C_cmp  1

	// .rodata
	//	song1C
	ALIGN 4


//**************** Track 1 (Midi-Chn.0) ****************//

song1C_001:
//  #01 //000   ----------------------------------------
 BYTE   KEYSH   song1C_key+0
 BYTE   TEMPO   170*song1C_tbs/2
 BYTE   VOICE   86
 BYTE   VOL   56*song1C_mvl/mxv
 BYTE   PAN   c_v+0
 BYTE   PAN   c_v+0
 BYTE   W12
 BYTE   W36
 BYTE   W12
 BYTE   W36
//  #01 //001   ----------------------------------------
Label_5580F3:
 BYTE   W12
 BYTE   W36
 BYTE   W12
 BYTE   W36
 BYTE   PEND 
//  #01 //002   ----------------------------------------
Label_5580F8:
 BYTE   W24
 BYTE   W24
 BYTE   W24
 BYTE   W24
 BYTE   PEND 
//  #01 //003   ----------------------------------------
 BYTE   PATT
  POIN2 Label_5580F8
//  #01 //004   ----------------------------------------
 BYTE   PATT
  POIN2 Label_5580F3
//  #01 //005   ----------------------------------------
 BYTE   PATT
  POIN2 Label_5580F3
//  #01 //006   ----------------------------------------
 BYTE   W24
 BYTE   W01
 BYTE   W01
 BYTE   W01
 BYTE   W01
 BYTE   W01
 BYTE   W01
 BYTE   W06
 BYTE   W12
 BYTE   W12
 BYTE   W01
 BYTE   W01
 BYTE   W01
 BYTE   W01
 BYTE   W01
 BYTE   W01
 BYTE   W06
 BYTE   W24
//  #01 //007   ----------------------------------------
 BYTE   W01
 BYTE   W01
 BYTE   W01
 BYTE   W01
 BYTE   W01
 BYTE   W01
 BYTE   W06
 BYTE   W24
 BYTE   W01
 BYTE   W01
 BYTE   W01
 BYTE   W01
 BYTE   W01
 BYTE   W01
 BYTE   W06
 BYTE   W24
 BYTE   W24
//  #01 //008   ----------------------------------------
 BYTE   W96
//  #01 //009   ----------------------------------------
 BYTE   W96
//  #01 //010   ----------------------------------------
 BYTE   W96
//  #01 //011   ----------------------------------------
 BYTE   W72
 BYTE   W24
//  #01 //012   ----------------------------------------
Label_558134:
//  #01 //013   ----------------------------------------
 BYTE   PATT
  POIN2 Label_5580F8
//  #01 //014   ----------------------------------------
 BYTE   PATT
  POIN2 Label_5580F8
//  #01 //015   ----------------------------------------
 BYTE   W48
 BYTE   W48
//  #01 //016   ----------------------------------------
 BYTE   W48
 BYTE   W48
//  #01 //017   ----------------------------------------
 BYTE   W96
//  #01 //018   ----------------------------------------
 BYTE   W72
 BYTE   W24
//  #01 //019   ----------------------------------------
 BYTE   PATT
  POIN2 Label_5580F8
//  #01 //020   ----------------------------------------
 BYTE   W96
//  #01 //021   ----------------------------------------
 BYTE   W96
//  #01 //022   ----------------------------------------
 BYTE   W72
 BYTE   N23  Gs3  v112
 BYTE   W24
//  #01 //023   ----------------------------------------
 BYTE   An3
 BYTE   W24
 BYTE   Gs3
 BYTE   W24
 BYTE   An3
 BYTE   W24
 BYTE   Cs4
 BYTE   W24
//  #01 //024   ----------------------------------------
 BYTE   N44  Bn3
 BYTE   W48
 BYTE   Fs3
 BYTE   W48
//  #01 //025   ----------------------------------------
 BYTE   W96
//  #01 //026   ----------------------------------------
 BYTE   W96
//  #01 //027   ----------------------------------------
 BYTE   W96
//  #01 //028   ----------------------------------------
 BYTE   W48
 BYTE   W24
 BYTE   W24
//  #01 //029   ----------------------------------------
 BYTE   W48
 BYTE   W48
//  #01 //030   ----------------------------------------
 BYTE   W48
 BYTE   W48
//  #01 //031   ----------------------------------------
 BYTE   PATT
  POIN2 Label_5580F8
//  #01 //032   ----------------------------------------
 BYTE   W96
//  #01 //033   ----------------------------------------
 BYTE   W96
//  #01 //034   ----------------------------------------
 BYTE   W96
//  #01 //035   ----------------------------------------
 BYTE   W96
//  #01 //036   ----------------------------------------
 BYTE   W96
//  #01 //037   ----------------------------------------
 BYTE   W96
//  #01 //038   ----------------------------------------
 BYTE   W96
//  #01 //039   ----------------------------------------
 BYTE   W96
//  #01 //040   ----------------------------------------
 BYTE   W96
//  #01 //041   ----------------------------------------
 BYTE   W96
//  #01 //042   ----------------------------------------
 BYTE   W48
 BYTE   N23  As3  v112
 BYTE   W24
 BYTE   Cs4
 BYTE   W24
//  #01 //043   ----------------------------------------
 BYTE   N44  Cn4
 BYTE   W48
 BYTE   Gs3
 BYTE   W48
//  #01 //044   ----------------------------------------
 BYTE   Ds3
 BYTE   W48
 BYTE   Gs3
 BYTE   W48
//  #01 //045   ----------------------------------------
 BYTE   W96
//  #01 //046   ----------------------------------------
 BYTE   W96
//  #01 //047   ----------------------------------------
 BYTE   W96
//  #01 //048   ----------------------------------------
 BYTE   W96
//  #01 //049   ----------------------------------------
 BYTE   W96
//  #01 //050   ----------------------------------------
 BYTE   W96
//  #01 //051   ----------------------------------------
 BYTE   N23  Fs3
 BYTE   W24
 BYTE   Fn3
 BYTE   W24
 BYTE   Fs3
 BYTE   W24
 BYTE   Gs3
 BYTE   W24
//  #01 //052   ----------------------------------------
 BYTE   As3
 BYTE   W24
 BYTE   Gs3
 BYTE   W24
 BYTE   As3
 BYTE   W24
 BYTE   Cn4
 BYTE   W24
//  #01 //053   ----------------------------------------
Label_55819E:
 BYTE   N44  Cn4  v112
 BYTE   W48
 BYTE   An3
 BYTE   W48
 BYTE   PEND 
//  #01 //054   ----------------------------------------
 BYTE   En3
 BYTE   W48
 BYTE   N11
 BYTE   W24
 BYTE   TIE  Fs3
 BYTE   W24
//  #01 //055   ----------------------------------------
 BYTE   W96
//  #01 //056   ----------------------------------------
 BYTE   W92
 BYTE   W03
 BYTE   EOT
 BYTE   W01
//  #01 //057   ----------------------------------------
 BYTE   PATT
  POIN2 Label_55819E
//  #01 //058   ----------------------------------------
 BYTE   N44  En3  v112
 BYTE   W48
 BYTE   N11  Cn4
 BYTE   W24
 BYTE   TIE  Dn4
 BYTE   W24
//  #01 //059   ----------------------------------------
 BYTE   W96
//  #01 //060   ----------------------------------------
 BYTE   W44
 BYTE   W03
 BYTE   EOT
 BYTE   W01
 BYTE   N44
 BYTE   W48
//  #01 //061   ----------------------------------------
 BYTE   W96
//  #01 //062   ----------------------------------------
 BYTE   W96
//  #01 //063   ----------------------------------------
 BYTE   W96
//  #01 //064   ----------------------------------------
 BYTE   W72
 BYTE   W24
//  #01 //065   ----------------------------------------
 BYTE   GoTo
  POIN2 Label_558134
 BYTE   FINE

//**************** Track 2 (Midi-Chn.1) ****************//

song1C_002:
//  #02 //000   ----------------------------------------
 BYTE   KEYSH   song1C_key+0
 BYTE   VOICE   61
 BYTE   VOL   55*song1C_mvl/mxv
 BYTE   PAN   c_v+0
 BYTE   W12
 BYTE   W36
 BYTE   W12
 BYTE   W36
//  #02 //001   ----------------------------------------
Label_557CF0:
 BYTE   W12
 BYTE   W36
 BYTE   W12
 BYTE   W36
 BYTE   PEND 
//  #02 //002   ----------------------------------------
Label_557CF5:
 BYTE   W24
 BYTE   W24
 BYTE   W24
 BYTE   W24
 BYTE   PEND 
//  #02 //003   ----------------------------------------
 BYTE   PATT
  POIN2 Label_557CF5
//  #02 //004   ----------------------------------------
 BYTE   PATT
  POIN2 Label_557CF0
//  #02 //005   ----------------------------------------
 BYTE   PATT
  POIN2 Label_557CF0
//  #02 //006   ----------------------------------------
 BYTE   W24
 BYTE   W01
 BYTE   W01
 BYTE   W01
 BYTE   W01
 BYTE   W01
 BYTE   W01
 BYTE   W06
 BYTE   W12
 BYTE   W12
 BYTE   W01
 BYTE   W01
 BYTE   W01
 BYTE   W01
 BYTE   W01
 BYTE   W01
 BYTE   W06
 BYTE   W24
//  #02 //007   ----------------------------------------
 BYTE   W01
 BYTE   W01
 BYTE   W01
 BYTE   W01
 BYTE   W01
 BYTE   W01
 BYTE   W06
 BYTE   W24
 BYTE   W01
 BYTE   W01
 BYTE   W01
 BYTE   W01
 BYTE   W01
 BYTE   W01
 BYTE   W06
 BYTE   W24
 BYTE   W24
//  #02 //008   ----------------------------------------
 BYTE   W96
//  #02 //009   ----------------------------------------
 BYTE   W96
//  #02 //010   ----------------------------------------
 BYTE   W96
//  #02 //011   ----------------------------------------
Label_557D2F:
 BYTE   W72
 BYTE   N23  Dn3  v112
 BYTE   W24
 BYTE   PEND 
//  #02 //012   ----------------------------------------
Label_557D35:
 BYTE   N23  Dn3  v112
 BYTE   W24
 BYTE   Ds3
 BYTE   W24
 BYTE   Fn3
 BYTE   W24
 BYTE   N44  Gn3
 BYTE   W24
//  #02 //013   ----------------------------------------
 BYTE   W24
 BYTE   N23  Fn3
 BYTE   W24
 BYTE   Ds3
 BYTE   W24
 BYTE   Dn3
 BYTE   W24
//  #02 //014   ----------------------------------------
 BYTE   N44  Cn3
 BYTE   W48
 BYTE   Dn3
 BYTE   W48
//  #02 //015   ----------------------------------------
 BYTE   Ds3
 BYTE   W48
 BYTE   Fs3
 BYTE   W48
//  #02 //016   ----------------------------------------
 BYTE   N23  Gn3
 BYTE   W96
//  #02 //017   ----------------------------------------
 BYTE   W72
 BYTE   W24
//  #02 //018   ----------------------------------------
 BYTE   PATT
  POIN2 Label_557CF5
//  #02 //019   ----------------------------------------
 BYTE   W96
//  #02 //020   ----------------------------------------
Label_557D5C:
 BYTE   N23  Fn3  v112
 BYTE   W24
 BYTE   N07  Ds3  v127
 BYTE   W01
 BYTE   W01
 BYTE   W01
 BYTE   W01
 BYTE   W01
 BYTE   W01
 BYTE   W06
 BYTE   N23  Cs3  v112
 BYTE   W12
 BYTE   W12
 BYTE   N07  Ds3  v127
 BYTE   W01
 BYTE   W01
 BYTE   W01
 BYTE   W01
 BYTE   W01
 BYTE   W01
 BYTE   W06
 BYTE   N68  Fn3  v112
 BYTE   W24
 BYTE   PEND 
//  #02 //021   ----------------------------------------
 BYTE   W48
 BYTE   N44  Ds3
 BYTE   W48
//  #02 //022   ----------------------------------------
 BYTE   N23  En3
 BYTE   W24
 BYTE   Ds3
 BYTE   W24
 BYTE   En3
 BYTE   W24
 BYTE   Gs3
 BYTE   W24
//  #02 //023   ----------------------------------------
 BYTE   N44  Fs3
 BYTE   W48
 BYTE   N23  En3
 BYTE   W24
 BYTE   Ds3
 BYTE   W24
//  #02 //024   ----------------------------------------
 BYTE   W96
//  #02 //025   ----------------------------------------
 BYTE   W96
//  #02 //026   ----------------------------------------
 BYTE   W96
//  #02 //027   ----------------------------------------
 BYTE   W48
 BYTE   W24
 BYTE   W24
//  #02 //028   ----------------------------------------
 BYTE   W48
 BYTE   W48
//  #02 //029   ----------------------------------------
 BYTE   W48
 BYTE   W48
//  #02 //030   ----------------------------------------
 BYTE   PATT
  POIN2 Label_557CF5
//  #02 //031   ----------------------------------------
 BYTE   W96
//  #02 //032   ----------------------------------------
 BYTE   W96
//  #02 //033   ----------------------------------------
 BYTE   W96
//  #02 //034   ----------------------------------------
 BYTE   W96
//  #02 //035   ----------------------------------------
 BYTE   W96
//  #02 //036   ----------------------------------------
Label_557DA7:
 BYTE   N23  Fn3  v112
 BYTE   W24
 BYTE   N07  Ds3  v127
 BYTE   W01
 BYTE   W01
 BYTE   W01
 BYTE   W01
 BYTE   W01
 BYTE   W01
 BYTE   W06
 BYTE   N23  Cs3  v112
 BYTE   W12
 BYTE   W12
 BYTE   N07  Ds3  v127
 BYTE   W01
 BYTE   W01
 BYTE   W01
 BYTE   W01
 BYTE   W01
 BYTE   W01
 BYTE   W06
 BYTE   TIE  Fn3  v112
 BYTE   W24
 BYTE   PEND 
//  #02 //037   ----------------------------------------
Label_557DC9:
 BYTE   W92
 BYTE   W03
 BYTE   PEND 
 BYTE   EOT
 BYTE   Fn3
 BYTE   W01
//  #02 //038   ----------------------------------------
 BYTE   N23  Fn3  v112
 BYTE   W24
 BYTE   N07  Ds3  v127
 BYTE   W01
 BYTE   W01
 BYTE   W01
 BYTE   W01
 BYTE   W01
 BYTE   W01
 BYTE   W06
 BYTE   N23  Cs3  v112
 BYTE   W12
 BYTE   W12
 BYTE   N07  Ds3  v127
 BYTE   W01
 BYTE   W01
 BYTE   W01
 BYTE   W01
 BYTE   W01
 BYTE   W01
 BYTE   W06
 BYTE   TIE  Cn3  v112
 BYTE   W24
//  #02 //039   ----------------------------------------
 BYTE   PATT
  POIN2 Label_557DC9
//  #02 //040   ----------------------------------------
 BYTE   EOT
 BYTE   Cn3
 BYTE   W01
//  #02 //041   ----------------------------------------
 BYTE   PATT
  POIN2 Label_557D5C
//  #02 //042   ----------------------------------------
 BYTE   W48
 BYTE   N23  Fs3  v112
 BYTE   W24
 BYTE   As3
 BYTE   W24
//  #02 //043   ----------------------------------------
 BYTE   N44  Gs3
 BYTE   W48
 BYTE   Ds3
 BYTE   W48
//  #02 //044   ----------------------------------------
 BYTE   Cn3
 BYTE   W48
 BYTE   Ds3
 BYTE   W48
//  #02 //045   ----------------------------------------
 BYTE   PATT
  POIN2 Label_557DA7
//  #02 //046   ----------------------------------------
 BYTE   PATT
  POIN2 Label_557DC9
//  #02 //047   ----------------------------------------
 BYTE   EOT
 BYTE   Fn3
 BYTE   W01
 BYTE   N23  Fn3  v112
 BYTE   W24
 BYTE   N07  Ds3  v127
 BYTE   W01
 BYTE   W01
 BYTE   W01
 BYTE   W01
 BYTE   W01
 BYTE   W01
 BYTE   W06
 BYTE   N23  Cs3  v112
 BYTE   W12
 BYTE   W12
 BYTE   N07  Ds3  v127
 BYTE   W01
 BYTE   W01
 BYTE   W01
 BYTE   W01
 BYTE   W01
 BYTE   W01
 BYTE   W06
 BYTE   N68  Cn3  v112
 BYTE   W24
//  #02 //048   ----------------------------------------
 BYTE   W48
 BYTE   N44  Gs3
 BYTE   W48
//  #02 //049   ----------------------------------------
 BYTE   N23  As2
 BYTE   W24
 BYTE   Gs2
 BYTE   W24
 BYTE   As2
 BYTE   W24
 BYTE   Cn3
 BYTE   W24
//  #02 //050   ----------------------------------------
Label_557E48:
 BYTE   N23  Ds3  v112
 BYTE   W24
 BYTE   Cs3
 BYTE   W24
 BYTE   Ds3
 BYTE   W24
 BYTE   Fn3
 BYTE   W24
 BYTE   PEND 
//  #02 //051   ----------------------------------------
 BYTE   PATT
  POIN2 Label_557E48
//  #02 //052   ----------------------------------------
 BYTE   N23  Fs3  v112
 BYTE   W24
 BYTE   Fn3
 BYTE   W24
 BYTE   Fs3
 BYTE   W24
 BYTE   Gs3
 BYTE   W24
//  #02 //053   ----------------------------------------
 BYTE   W96
//  #02 //054   ----------------------------------------
 BYTE   W96
//  #02 //055   ----------------------------------------
 BYTE   W96
//  #02 //056   ----------------------------------------
 BYTE   W96
//  #02 //057   ----------------------------------------
 BYTE   W96
//  #02 //058   ----------------------------------------
 BYTE   W96
//  #02 //059   ----------------------------------------
 BYTE   W96
//  #02 //060   ----------------------------------------
 BYTE   W96
//  #02 //061   ----------------------------------------
 BYTE   W96
//  #02 //062   ----------------------------------------
 BYTE   W96
//  #02 //063   ----------------------------------------
 BYTE   W96
//  #02 //064   ----------------------------------------
 BYTE   PATT
  POIN2 Label_557D2F
//  #02 //065   ----------------------------------------
 BYTE   GoTo
  POIN2 Label_557D35
 BYTE   FINE

//**************** Track 3 (Midi-Chn.2) ****************//

song1C_003:
//  #03 //000   ----------------------------------------
 BYTE   KEYSH   song1C_key+0
 BYTE   VOICE   48
 BYTE   VOL   49*song1C_mvl/mxv
 BYTE   PAN   c_v+0
 BYTE   PAN   c_v+0
 BYTE   N11  Dn3  v127
 BYTE   N11  Gn3
 BYTE   W12
 BYTE   Dn3
 BYTE   N11  Gn3
 BYTE   W36
 BYTE   Fs3
 BYTE   N11  An3
 BYTE   W12
 BYTE   Fs3
 BYTE   N11  An3
 BYTE   W36
//  #03 //001   ----------------------------------------
Label_0128D6B3:
 BYTE   N11  Gn3  v127
 BYTE   N11  As3
 BYTE   W12
 BYTE   Gn3
 BYTE   N11  As3
 BYTE   W36
 BYTE   An3
 BYTE   N11  Cn4
 BYTE   W12
 BYTE   An3
 BYTE   N11  Cn4
 BYTE   W36
 BYTE   PEND 
//  #03 //002   ----------------------------------------
 BYTE   N23  As3
 BYTE   N23  Dn4
 BYTE   W24
 BYTE   An3
 BYTE   N23  Cn4
 BYTE   W24
 BYTE   Gn3
 BYTE   N23  As3
 BYTE   W24
 BYTE   N23
 BYTE   N23  Dn4
 BYTE   W24
//  #03 //003   ----------------------------------------
 BYTE   An3
 BYTE   N23  Cn4
 BYTE   W24
 BYTE   Gn3
 BYTE   N23  As3
 BYTE   W24
 BYTE   Fn3
 BYTE   N23  An3
 BYTE   W24
 BYTE   N23
 BYTE   N23  Cn4
 BYTE   W24
//  #03 //004   ----------------------------------------
 BYTE   N11  Dn3
 BYTE   N11  Gn3
 BYTE   W12
 BYTE   Dn3
 BYTE   N11  Gn3
 BYTE   W36
 BYTE   Fs3
 BYTE   N11  An3
 BYTE   W12
 BYTE   Fs3
 BYTE   N11  An3
 BYTE   W36
//  #03 //005   ----------------------------------------
 BYTE   PATT
  POIN2 Label_0128D6B3
//  #03 //006   ----------------------------------------
 BYTE   N23  An3  v127
 BYTE   N23  Dn4
 BYTE   W24
 BYTE   N07  As3
 BYTE   N07  Ds4
 BYTE   W12
 BYTE   N23  An3
 BYTE   N23  Dn4
 BYTE   W24
 BYTE   N07  As3
 BYTE   N07  Ds4
 BYTE   W12
 BYTE   N23  An3
 BYTE   N23  Dn4
 BYTE   W24
//  #03 //007   ----------------------------------------
 BYTE   N07  As3
 BYTE   N07  Ds4
 BYTE   W12
 BYTE   N23  An3
 BYTE   N23  Dn4
 BYTE   W24
 BYTE   N07  As3
 BYTE   N07  Ds4
 BYTE   W12
 BYTE   N23  An3
 BYTE   N23  Dn4
 BYTE   W24
 BYTE   An3
 BYTE   N23  Dn4
 BYTE   W24
//  #03 //008   ----------------------------------------
Label_0128D72F:
 BYTE   N44  As2  v100
 BYTE   N44  Dn3
 BYTE   W48
 BYTE   As2
 BYTE   N44  Dn3
 BYTE   W48
 BYTE   PEND 
//  #03 //009   ----------------------------------------
Label_0128D73A:
 BYTE   N44  An2  v100
 BYTE   N44  Fn3
 BYTE   W48
 BYTE   An2
 BYTE   N44  Cn3
 BYTE   W48
 BYTE   PEND 
//  #03 //010   ----------------------------------------
Label_0128D745:
 BYTE   N44  As2  v100
 BYTE   N44  Dn3
 BYTE   W48
 BYTE   Gn2
 BYTE   N44  As2
 BYTE   W48
 BYTE   PEND 
//  #03 //011   ----------------------------------------
Label_0128D750:
 BYTE   N44  An2  v100
 BYTE   N44  Cn3
 BYTE   W48
 BYTE   An2
 BYTE   N44  Fn3
 BYTE   W48
 BYTE   PEND 
//  #03 //012   ----------------------------------------
Label_0128D75B:
 BYTE   N23  As2  v100
 BYTE   W24
 BYTE   Cn3
 BYTE   W24
 BYTE   Dn3
 BYTE   W24
 BYTE   N44  Ds3
 BYTE   W24
//  #03 //013   ----------------------------------------
 BYTE   W24
 BYTE   N23  Dn3
 BYTE   W24
 BYTE   Cn3
 BYTE   W24
 BYTE   As2
 BYTE   W24
//  #03 //014   ----------------------------------------
 BYTE   N44  An2
 BYTE   W48
 BYTE   As2
 BYTE   W48
//  #03 //015   ----------------------------------------
 BYTE   Cn3
 BYTE   W48
 BYTE   Dn3
 BYTE   W48
//  #03 //016   ----------------------------------------
 BYTE   PATT
  POIN2 Label_0128D72F
//  #03 //017   ----------------------------------------
 BYTE   PATT
  POIN2 Label_0128D750
//  #03 //018   ----------------------------------------
 BYTE   N23  Cn3  v100
 BYTE   N23  Fn3
 BYTE   W24
 BYTE   As2
 BYTE   N23  Ds3
 BYTE   W24
 BYTE   An2
 BYTE   N23  Dn3
 BYTE   W24
 BYTE   As2
 BYTE   N23  Dn3
 BYTE   W24
//  #03 //019   ----------------------------------------
 BYTE   N68  Gn2
 BYTE   N68  As2
 BYTE   W96
//  #03 //020   ----------------------------------------
Label_0128D798:
 BYTE   N23  As2  v100
 BYTE   N23  Cs3
 BYTE   W24
 BYTE   N07  Gs2  v104
 BYTE   N07  Cn3
 BYTE   W01
 BYTE   W01
 BYTE   W01
 BYTE   W01
 BYTE   W01
 BYTE   W01
 BYTE   W06
 BYTE   N23  Fs2  v100
 BYTE   N23  As2
 BYTE   W12
 BYTE   W12
 BYTE   N07  Gs2  v104
 BYTE   N07  Cn3
 BYTE   W01
 BYTE   W01
 BYTE   W01
 BYTE   W01
 BYTE   W01
 BYTE   W01
 BYTE   W06
 BYTE   N68  As2  v100
 BYTE   N68  Cs3
 BYTE   W24
 BYTE   PEND 
//  #03 //021   ----------------------------------------
 BYTE   W48
 BYTE   N44  Gs2
 BYTE   N44  Cn3
 BYTE   W48
//  #03 //022   ----------------------------------------
 BYTE   N23  Cs3
 BYTE   W24
 BYTE   Bn2
 BYTE   W24
 BYTE   Cs3
 BYTE   W24
 BYTE   En3
 BYTE   W24
//  #03 //023   ----------------------------------------
 BYTE   N44  Ds3
 BYTE   W48
 BYTE   Bn2
 BYTE   W48
//  #03 //024   ----------------------------------------
 BYTE   Cs2
 BYTE   N44  Fn2
 BYTE   W48
 BYTE   N44
 BYTE   N44  As2
 BYTE   W48
//  #03 //025   ----------------------------------------
 BYTE   Gs2
 BYTE   N44  Cn3
 BYTE   W48
 BYTE   N44
 BYTE   N44  Fn3
 BYTE   W48
//  #03 //026   ----------------------------------------
 BYTE   N23  Cn3
 BYTE   N23  Ds3
 BYTE   W24
 BYTE   As2
 BYTE   N23  Cs3
 BYTE   W24
 BYTE   Gs2
 BYTE   N23  Cn3
 BYTE   W24
 BYTE   As2
 BYTE   N23  Cs3
 BYTE   W24
//  #03 //027   ----------------------------------------
 BYTE   N68
 BYTE   N68  Fn3
 BYTE   W48
 BYTE   N23  Fn2  v104
 BYTE   N23  Gs2
 BYTE   W24
 BYTE   Gn2
 BYTE   N23  As2
 BYTE   W24
//  #03 //028   ----------------------------------------
 BYTE   N44  Gs2
 BYTE   N44  Cn3
 BYTE   W48
 BYTE   Gs2
 BYTE   N44  Ds3
 BYTE   W48
//  #03 //029   ----------------------------------------
 BYTE   Cn3
 BYTE   N44  Fn3
 BYTE   W48
 BYTE   N44
 BYTE   N44  Gs3
 BYTE   W48
//  #03 //030   ----------------------------------------
 BYTE   N23  Cs3
 BYTE   N23  Gn3
 BYTE   W24
 BYTE   Cs3
 BYTE   N23  Fn3
 BYTE   W24
 BYTE   Cs3
 BYTE   N23  En3
 BYTE   W24
 BYTE   Cs3
 BYTE   N23  Fn3
 BYTE   W24
//  #03 //031   ----------------------------------------
 BYTE   N92  Dn3
 BYTE   N92  Gn3
 BYTE   W96
//  #03 //032   ----------------------------------------
 BYTE   N23  Fn2  v100
 BYTE   W24
 BYTE   Ds2
 BYTE   W24
 BYTE   Dn2
 BYTE   W24
 BYTE   Ds2
 BYTE   W24
//  #03 //033   ----------------------------------------
 BYTE   N44  Dn2
 BYTE   N44  Gn2
 BYTE   W48
 BYTE   N44
 BYTE   N44  Dn3
 BYTE   W48
//  #03 //034   ----------------------------------------
 BYTE   N56  Gs2
 BYTE   N56  Cn3
 BYTE   W48
 BYTE   W12
 BYTE   N11  Gn2
 BYTE   N11  As2
 BYTE   W12
 BYTE   Gs2
 BYTE   N11  Cn3
 BYTE   W12
 BYTE   As2
 BYTE   N11  Dn3
 BYTE   W12
//  #03 //035   ----------------------------------------
 BYTE   N44  As2
 BYTE   N44  Ds3
 BYTE   W48
 BYTE   Gn2
 BYTE   N44  As2
 BYTE   W48
//  #03 //036   ----------------------------------------
Label_0128D85D:
 BYTE   N23  As2  v100
 BYTE   N23  Cs3
 BYTE   W24
 BYTE   N07  Gs2  v104
 BYTE   N07  Cn3
 BYTE   W01
 BYTE   W01
 BYTE   W01
 BYTE   W01
 BYTE   W01
 BYTE   W01
 BYTE   W06
 BYTE   N23  Fs2  v100
 BYTE   N23  As2
 BYTE   W12
 BYTE   W12
 BYTE   N07  Gs2  v104
 BYTE   N07  Cn3
 BYTE   W01
 BYTE   W01
 BYTE   W01
 BYTE   W01
 BYTE   W01
 BYTE   W01
 BYTE   W06
 BYTE   TIE  As2  v100
 BYTE   TIE  Cs3
 BYTE   W24
 BYTE   PEND 
//  #03 //037   ----------------------------------------
Label_0128D889:
 BYTE   W92
 BYTE   W03
 BYTE   PEND 
 BYTE   EOT
 BYTE   As2  v061
 BYTE   W01
//  #03 //038   ----------------------------------------
 BYTE   N23  Gs2  v100
 BYTE   N23  Cn3
 BYTE   W24
 BYTE   N07  Fs2  v104
 BYTE   N07  As2
 BYTE   W01
 BYTE   W01
 BYTE   W01
 BYTE   W01
 BYTE   W01
 BYTE   W01
 BYTE   W06
 BYTE   N23  Fn2  v100
 BYTE   N23  Gs2
 BYTE   W12
 BYTE   W12
 BYTE   N07  Ds2  v104
 BYTE   N07  Fs2
 BYTE   W01
 BYTE   W01
 BYTE   W01
 BYTE   W01
 BYTE   W01
 BYTE   W01
 BYTE   W06
 BYTE   TIE  Ds2  v100
 BYTE   TIE  Gs2
 BYTE   W24
//  #03 //039   ----------------------------------------
 BYTE   PATT
  POIN2 Label_0128D889
//  #03 //040   ----------------------------------------
 BYTE   EOT
 BYTE   Ds2  v056
 BYTE   W01
//  #03 //041   ----------------------------------------
 BYTE   PATT
  POIN2 Label_0128D798
//  #03 //042   ----------------------------------------
 BYTE   W48
 BYTE   N23  Ds3  v100
 BYTE   W24
 BYTE   Fs3
 BYTE   W24
//  #03 //043   ----------------------------------------
 BYTE   N44  Fn3
 BYTE   W48
 BYTE   Cn3
 BYTE   W48
//  #03 //044   ----------------------------------------
 BYTE   Gs2
 BYTE   W48
 BYTE   Cn3
 BYTE   W48
//  #03 //045   ----------------------------------------
 BYTE   PATT
  POIN2 Label_0128D85D
//  #03 //046   ----------------------------------------
 BYTE   PATT
  POIN2 Label_0128D889
//  #03 //047   ----------------------------------------
 BYTE   EOT
 BYTE   As2  v061
 BYTE   W01
 BYTE   N23  Gs2  v100
 BYTE   N23  Cn3
 BYTE   W24
 BYTE   N07  Fs2  v104
 BYTE   N07  As2
 BYTE   W01
 BYTE   W01
 BYTE   W01
 BYTE   W01
 BYTE   W01
 BYTE   W01
 BYTE   W06
 BYTE   N23  Fn2  v100
 BYTE   N23  Gs2
 BYTE   W12
 BYTE   W12
 BYTE   N07  Ds2  v104
 BYTE   N07  Fs2
 BYTE   W01
 BYTE   W01
 BYTE   W01
 BYTE   W01
 BYTE   W01
 BYTE   W01
 BYTE   W06
 BYTE   N68  Ds2  v100
 BYTE   N68  Gs2
 BYTE   W24
//  #03 //048   ----------------------------------------
 BYTE   W48
 BYTE   N44  Cn3
 BYTE   N44  Ds3
 BYTE   W48
//  #03 //049   ----------------------------------------
 BYTE   N23  Fs2
 BYTE   W24
 BYTE   Fn2
 BYTE   W24
 BYTE   Fs2
 BYTE   W24
 BYTE   Gs2
 BYTE   W24
//  #03 //050   ----------------------------------------
Label_0128D921:
 BYTE   N23  Cn3  v100
 BYTE   W24
 BYTE   As2
 BYTE   W24
 BYTE   Cn3
 BYTE   W24
 BYTE   Cs3
 BYTE   W24
 BYTE   PEND 
//  #03 //051   ----------------------------------------
 BYTE   PATT
  POIN2 Label_0128D921
//  #03 //052   ----------------------------------------
 BYTE   N23  Ds3  v100
 BYTE   W24
 BYTE   Cs3
 BYTE   W24
 BYTE   Ds3
 BYTE   W24
 BYTE   Fn3
 BYTE   W24
//  #03 //053   ----------------------------------------
Label_0128D93B:
 BYTE   N44  En3  v100
 BYTE   W48
 BYTE   Cn3
 BYTE   W48
 BYTE   PEND 
//  #03 //054   ----------------------------------------
 BYTE   An2
 BYTE   W48
 BYTE   N11
 BYTE   W24
 BYTE   TIE
 BYTE   W24
//  #03 //055   ----------------------------------------
 BYTE   W96
//  #03 //056   ----------------------------------------
 BYTE   PATT
  POIN2 Label_0128D889
//  #03 //057   ----------------------------------------
 BYTE   EOT
 BYTE   An2
 BYTE   W01
//  #03 //058   ----------------------------------------
 BYTE   PATT
  POIN2 Label_0128D93B
//  #03 //059   ----------------------------------------
 BYTE   N44  An2  v100
 BYTE   W48
 BYTE   N11  Cn3
 BYTE   W24
 BYTE   TIE  Dn3
 BYTE   W24
//  #03 //060   ----------------------------------------
 BYTE   W96
//  #03 //061   ----------------------------------------
 BYTE   W44
 BYTE   W03
 BYTE   EOT
 BYTE   W01
 BYTE   N44  An2
 BYTE   N44  Dn3
 BYTE   W48
//  #03 //062   ----------------------------------------
 BYTE   PATT
  POIN2 Label_0128D72F
//  #03 //063   ----------------------------------------
 BYTE   PATT
  POIN2 Label_0128D73A
//  #03 //064   ----------------------------------------
 BYTE   PATT
  POIN2 Label_0128D745
//  #03 //065   ----------------------------------------
 BYTE   PATT
  POIN2 Label_0128D750
//  #03 //066   ----------------------------------------
 BYTE   GoTo
  POIN2 Label_0128D75B
 BYTE   FINE

//**************** Track 4 (Midi-Chn.3) ****************//

song1C_004:
//  #04 //000   ----------------------------------------
 BYTE   KEYSH   song1C_key+0
 BYTE   VOICE   110
 BYTE   VOL   70*song1C_mvl/mxv
 BYTE   PAN   c_v+0
 BYTE   PAN   c_v+0
 BYTE   W96
//  #04 //001   ----------------------------------------
 BYTE   W96
//  #04 //002   ----------------------------------------
 BYTE   W96
//  #04 //003   ----------------------------------------
 BYTE   W96
//  #04 //004   ----------------------------------------
 BYTE   W96
//  #04 //005   ----------------------------------------
 BYTE   W96
//  #04 //006   ----------------------------------------
 BYTE   W96
//  #04 //007   ----------------------------------------
 BYTE   W96
//  #04 //008   ----------------------------------------
 BYTE   W96
//  #04 //009   ----------------------------------------
 BYTE   W96
//  #04 //010   ----------------------------------------
 BYTE   W96
//  #04 //011   ----------------------------------------
 BYTE   W96
//  #04 //012   ----------------------------------------
Label_0128D431:
 BYTE   N23  Gn4  v112
 BYTE   W24
 BYTE   An4
 BYTE   W24
 BYTE   As4
 BYTE   W24
 BYTE   N44  Cn5
 BYTE   W24
//  #04 //013   ----------------------------------------
 BYTE   W24
 BYTE   N23  As4
 BYTE   W24
 BYTE   An4
 BYTE   W24
 BYTE   Gn4
 BYTE   W24
//  #04 //014   ----------------------------------------
 BYTE   N44  Fs4
 BYTE   W48
 BYTE   Gn4
 BYTE   W48
//  #04 //015   ----------------------------------------
 BYTE   An4
 BYTE   W48
 BYTE   Dn5
 BYTE   W48
//  #04 //016   ----------------------------------------
 BYTE   W96
//  #04 //017   ----------------------------------------
 BYTE   W96
//  #04 //018   ----------------------------------------
 BYTE   W96
//  #04 //019   ----------------------------------------
 BYTE   W96
//  #04 //020   ----------------------------------------
 BYTE   W96
//  #04 //021   ----------------------------------------
 BYTE   W96
//  #04 //022   ----------------------------------------
 BYTE   W96
//  #04 //023   ----------------------------------------
 BYTE   W96
//  #04 //024   ----------------------------------------
 BYTE   W96
//  #04 //025   ----------------------------------------
 BYTE   W96
//  #04 //026   ----------------------------------------
 BYTE   W96
//  #04 //027   ----------------------------------------
 BYTE   W96
//  #04 //028   ----------------------------------------
 BYTE   W96
//  #04 //029   ----------------------------------------
 BYTE   W96
//  #04 //030   ----------------------------------------
 BYTE   W96
//  #04 //031   ----------------------------------------
 BYTE   W96
//  #04 //032   ----------------------------------------
 BYTE   W96
//  #04 //033   ----------------------------------------
 BYTE   W48
 BYTE   Dn4  v096
 BYTE   W48
//  #04 //034   ----------------------------------------
 BYTE   N56  Cn4
 BYTE   W48
 BYTE   W12
 BYTE   N11  As3
 BYTE   W12
 BYTE   Cn4
 BYTE   W12
 BYTE   Dn4
 BYTE   W12
//  #04 //035   ----------------------------------------
 BYTE   N44  Ds4
 BYTE   W48
 BYTE   As3
 BYTE   W48
//  #04 //036   ----------------------------------------
 BYTE   W96
//  #04 //037   ----------------------------------------
 BYTE   W96
//  #04 //038   ----------------------------------------
 BYTE   W96
//  #04 //039   ----------------------------------------
 BYTE   W96
//  #04 //040   ----------------------------------------
 BYTE   W96
//  #04 //041   ----------------------------------------
 BYTE   W96
//  #04 //042   ----------------------------------------
 BYTE   W96
//  #04 //043   ----------------------------------------
 BYTE   W96
//  #04 //044   ----------------------------------------
 BYTE   W96
//  #04 //045   ----------------------------------------
 BYTE   W96
//  #04 //046   ----------------------------------------
 BYTE   W96
//  #04 //047   ----------------------------------------
 BYTE   W96
//  #04 //048   ----------------------------------------
 BYTE   W96
//  #04 //049   ----------------------------------------
 BYTE   W96
//  #04 //050   ----------------------------------------
 BYTE   W96
//  #04 //051   ----------------------------------------
 BYTE   W96
//  #04 //052   ----------------------------------------
 BYTE   W96
//  #04 //053   ----------------------------------------
 BYTE   W96
//  #04 //054   ----------------------------------------
 BYTE   W96
//  #04 //055   ----------------------------------------
 BYTE   W96
//  #04 //056   ----------------------------------------
 BYTE   W96
//  #04 //057   ----------------------------------------
 BYTE   W96
//  #04 //058   ----------------------------------------
 BYTE   W96
//  #04 //059   ----------------------------------------
 BYTE   W96
//  #04 //060   ----------------------------------------
 BYTE   W96
//  #04 //061   ----------------------------------------
 BYTE   W96
//  #04 //062   ----------------------------------------
 BYTE   W96
//  #04 //063   ----------------------------------------
 BYTE   W96
//  #04 //064   ----------------------------------------
 BYTE   GoTo
  POIN2 Label_0128D431
 BYTE   FINE

//**************** Track 5 (Midi-Chn.4) ****************//

song1C_005:
//  #05 //000   ----------------------------------------
 BYTE   KEYSH   song1C_key+0
 BYTE   VOICE   1
 BYTE   VOL   51*song1C_mvl/mxv
 BYTE   PAN   c_v+0
 BYTE   PAN   c_v+0
 BYTE   W96
//  #05 //001   ----------------------------------------
Label_0128D1B6:
 BYTE   W72
 BYTE   N05  Gn3  v072
 BYTE   W06
 BYTE   An3
 BYTE   W06
 BYTE   As3
 BYTE   W06
 BYTE   Cn4
 BYTE   W06
 BYTE   PEND 
//  #05 //002   ----------------------------------------
 BYTE   N11  As3
 BYTE   W12
 BYTE   Gn3
 BYTE   W12
 BYTE   Ds3
 BYTE   W12
 BYTE   Gn3
 BYTE   W12
 BYTE   As3
 BYTE   W12
 BYTE   Gn3
 BYTE   W12
 BYTE   Ds3
 BYTE   W12
 BYTE   As3
 BYTE   W12
//  #05 //003   ----------------------------------------
 BYTE   Cn4
 BYTE   W12
 BYTE   An3
 BYTE   W12
 BYTE   Fn3
 BYTE   W12
 BYTE   An3
 BYTE   W12
 BYTE   Cn4
 BYTE   W12
 BYTE   An3
 BYTE   W12
 BYTE   Fn3
 BYTE   W12
 BYTE   Cn4
 BYTE   W12
//  #05 //004   ----------------------------------------
 BYTE   W96
//  #05 //005   ----------------------------------------
 BYTE   PATT
  POIN2 Label_0128D1B6
//  #05 //006   ----------------------------------------
 BYTE   N11  Dn4  v072
 BYTE   W12
 BYTE   An3
 BYTE   W12
 BYTE   Dn3
 BYTE   W12
 BYTE   An3
 BYTE   W12
 BYTE   Dn4
 BYTE   W12
 BYTE   An3
 BYTE   W12
 BYTE   Dn3
 BYTE   W12
 BYTE   An3
 BYTE   W12
//  #05 //007   ----------------------------------------
 BYTE   Dn4
 BYTE   W12
 BYTE   An3
 BYTE   W12
 BYTE   Dn3
 BYTE   W12
 BYTE   An3
 BYTE   W12
 BYTE   N23
 BYTE   N23  Dn4
 BYTE   W24
 BYTE   An3
 BYTE   N23  Dn4
 BYTE   W24
//  #05 //008   ----------------------------------------
 BYTE   As3
 BYTE   N23  Dn4
 BYTE   W96
//  #05 //009   ----------------------------------------
 BYTE   W96
//  #05 //010   ----------------------------------------
 BYTE   W96
//  #05 //011   ----------------------------------------
 BYTE   W96
//  #05 //012   ----------------------------------------
Label_0128D212:
 BYTE   W96
//  #05 //013   ----------------------------------------
 BYTE   W96
//  #05 //014   ----------------------------------------
 BYTE   W96
//  #05 //015   ----------------------------------------
 BYTE   W96
//  #05 //016   ----------------------------------------
 BYTE   N11  Dn3  v080
 BYTE   W12
 BYTE   N11
 BYTE   W12
 BYTE   N23
 BYTE   W24
 BYTE   N11
 BYTE   W12
 BYTE   N23
 BYTE   W24
 BYTE   N11
 BYTE   W12
//  #05 //017   ----------------------------------------
 BYTE   Cn3
 BYTE   W12
 BYTE   N11
 BYTE   W12
 BYTE   N23
 BYTE   W24
 BYTE   N11
 BYTE   W12
 BYTE   N23
 BYTE   W12
 BYTE   Dn4  v112
 BYTE   N23  An4
 BYTE   W12
 BYTE   N11  Cn3  v080
 BYTE   W12
//  #05 //018   ----------------------------------------
 BYTE   N23  An4  v112
 BYTE   N23  Cn5
 BYTE   W24
 BYTE   Gn4
 BYTE   N23  As4
 BYTE   W24
 BYTE   Fn4
 BYTE   N23  An4
 BYTE   W24
 BYTE   Gn4
 BYTE   N23  As4
 BYTE   W24
//  #05 //019   ----------------------------------------
 BYTE   N68  Gn4
 BYTE   W12
 BYTE   N11  Dn3  v080
 BYTE   W12
 BYTE   Gn3
 BYTE   W12
 BYTE   As3
 BYTE   W12
 BYTE   Dn4
 BYTE   W12
 BYTE   As3
 BYTE   W12
 BYTE   An3
 BYTE   W12
 BYTE   Gn3
 BYTE   W12
//  #05 //020   ----------------------------------------
 BYTE   W96
//  #05 //021   ----------------------------------------
 BYTE   W12
 BYTE   Gs3
 BYTE   W12
 BYTE   Ds3
 BYTE   W12
 BYTE   Gs3
 BYTE   W12
 BYTE   Cn4
 BYTE   W12
 BYTE   Gs3
 BYTE   W12
 BYTE   Cn4
 BYTE   W12
 BYTE   Ds4
 BYTE   W12
//  #05 //022   ----------------------------------------
 BYTE   W12
 BYTE   Cs4
 BYTE   W12
 BYTE   An3
 BYTE   W12
 BYTE   En3
 BYTE   W12
 BYTE   Cs4
 BYTE   W12
 BYTE   An3
 BYTE   W12
 BYTE   En3
 BYTE   W12
 BYTE   Cs4
 BYTE   W12
//  #05 //023   ----------------------------------------
 BYTE   W12
 BYTE   Ds4
 BYTE   W12
 BYTE   Bn3
 BYTE   W12
 BYTE   Fs3
 BYTE   W12
 BYTE   Ds4
 BYTE   W12
 BYTE   Bn3
 BYTE   W12
 BYTE   Fs3
 BYTE   W12
 BYTE   Bn3
 BYTE   W12
//  #05 //024   ----------------------------------------
 BYTE   N23  As3
 BYTE   W96
//  #05 //025   ----------------------------------------
 BYTE   W96
//  #05 //026   ----------------------------------------
 BYTE   W96
//  #05 //027   ----------------------------------------
 BYTE   W12
 BYTE   N11  Cs3
 BYTE   W12
 BYTE   Fn3
 BYTE   W12
 BYTE   Gs3
 BYTE   W12
 BYTE   Cn4
 BYTE   W12
 BYTE   Cs4
 BYTE   W12
 BYTE   Ds4
 BYTE   W12
 BYTE   En4
 BYTE   W12
//  #05 //028   ----------------------------------------
 BYTE   Fn4
 BYTE   W60
 BYTE   N11
 BYTE   W36
//  #05 //029   ----------------------------------------
 BYTE   Ds4
 BYTE   W24
 BYTE   N11
 BYTE   W36
 BYTE   N11
 BYTE   W36
//  #05 //030   ----------------------------------------
 BYTE   W12
 BYTE   Cs4
 BYTE   W12
 BYTE   Cn4
 BYTE   W12
 BYTE   As3
 BYTE   W12
 BYTE   Gs3
 BYTE   W12
 BYTE   Gn3
 BYTE   W12
 BYTE   Fn3
 BYTE   W12
 BYTE   Ds3
 BYTE   W12
//  #05 //031   ----------------------------------------
 BYTE   N23  Dn3
 BYTE   W24
 BYTE   Gn3
 BYTE   W24
 BYTE   Fn3
 BYTE   N23  As3
 BYTE   W24
 BYTE   Gn3
 BYTE   N23  Bn3
 BYTE   W24
//  #05 //032   ----------------------------------------
 BYTE   Gn3
 BYTE   N23  Cn4
 BYTE   W48
 BYTE   Gn3
 BYTE   N23  Cn4
 BYTE   W48
//  #05 //033   ----------------------------------------
 BYTE   Gn3
 BYTE   N23  Dn4
 BYTE   W48
 BYTE   As3
 BYTE   N23  Gn4
 BYTE   W48
//  #05 //034   ----------------------------------------
 BYTE   Ds4
 BYTE   N23  Gs4
 BYTE   W24
 BYTE   Dn4
 BYTE   N23  Gn4
 BYTE   W24
 BYTE   Ds4
 BYTE   N23  Gs4
 BYTE   W24
 BYTE   Fn4
 BYTE   N23  Cn5
 BYTE   W24
//  #05 //035   ----------------------------------------
 BYTE   Gn4
 BYTE   N23  As4
 BYTE   W24
 BYTE   Fn4
 BYTE   N23  Gs4
 BYTE   W24
 BYTE   Ds4
 BYTE   N44  Gn4
 BYTE   W24
 BYTE   N23  Dn4
 BYTE   W24
//  #05 //036   ----------------------------------------
 BYTE   W96
//  #05 //037   ----------------------------------------
Label_0128D2F5:
 BYTE   W12
 BYTE   N11  Fs3  v080
 BYTE   W12
 BYTE   Cs3
 BYTE   W12
 BYTE   Fs3
 BYTE   W12
 BYTE   As3
 BYTE   W12
 BYTE   Fs3
 BYTE   W12
 BYTE   As3
 BYTE   W12
 BYTE   Cs4
 BYTE   W12
 BYTE   PEND 
//  #05 //038   ----------------------------------------
 BYTE   W96
//  #05 //039   ----------------------------------------
Label_0128D308:
 BYTE   W12
 BYTE   N11  Fn3  v080
 BYTE   W12
 BYTE   Cn3
 BYTE   W12
 BYTE   Fn3
 BYTE   W12
 BYTE   Gs3
 BYTE   W12
 BYTE   Fn3
 BYTE   W12
 BYTE   Gs3
 BYTE   W12
 BYTE   Cn4
 BYTE   W12
 BYTE   PEND 
//  #05 //040   ----------------------------------------
 BYTE   W96
//  #05 //041   ----------------------------------------
 BYTE   W96
//  #05 //042   ----------------------------------------
 BYTE   W12
 BYTE   N11
 BYTE   W12
 BYTE   Gs3
 BYTE   W12
 BYTE   Fn3
 BYTE   W12
 BYTE   Cn4
 BYTE   W12
 BYTE   Gs3
 BYTE   W12
 BYTE   Fn3
 BYTE   W12
 BYTE   Cn4
 BYTE   W12
//  #05 //043   ----------------------------------------
 BYTE   W12
 BYTE   Ds4
 BYTE   W12
 BYTE   Cn4
 BYTE   W12
 BYTE   As3
 BYTE   W12
 BYTE   Gs3
 BYTE   W12
 BYTE   Ds3
 BYTE   W12
 BYTE   Gs3
 BYTE   W12
 BYTE   Cn4
 BYTE   W12
//  #05 //044   ----------------------------------------
 BYTE   W96
//  #05 //045   ----------------------------------------
 BYTE   PATT
  POIN2 Label_0128D2F5
//  #05 //046   ----------------------------------------
 BYTE   W96
//  #05 //047   ----------------------------------------
 BYTE   PATT
  POIN2 Label_0128D308
//  #05 //048   ----------------------------------------
 BYTE   W12
 BYTE   N11  As3  v080
 BYTE   W12
 BYTE   Fn3
 BYTE   W12
 BYTE   Cs3
 BYTE   W12
 BYTE   Ds3
 BYTE   W12
 BYTE   Fn3
 BYTE   W12
 BYTE   Fs3
 BYTE   W12
 BYTE   As3
 BYTE   W12
//  #05 //049   ----------------------------------------
 BYTE   W12
 BYTE   Cn4
 BYTE   W12
 BYTE   Gs3
 BYTE   W12
 BYTE   Ds3
 BYTE   W12
 BYTE   Fn3
 BYTE   W12
 BYTE   Gs3
 BYTE   W12
 BYTE   As3
 BYTE   W12
 BYTE   Cn4
 BYTE   W12
//  #05 //050   ----------------------------------------
 BYTE   W12
 BYTE   Cs4
 BYTE   W12
 BYTE   Gs3
 BYTE   W12
 BYTE   Ds3
 BYTE   W12
 BYTE   Fn3
 BYTE   W12
 BYTE   Gs3
 BYTE   W12
 BYTE   As3
 BYTE   W12
 BYTE   Cs4
 BYTE   W12
//  #05 //051   ----------------------------------------
 BYTE   W12
 BYTE   Ds4
 BYTE   W12
 BYTE   Cs4
 BYTE   W12
 BYTE   As3
 BYTE   W12
 BYTE   Gs3
 BYTE   W12
 BYTE   Fs3
 BYTE   W12
 BYTE   Fn3
 BYTE   W12
 BYTE   Ds3
 BYTE   W12
//  #05 //052   ----------------------------------------
 BYTE   En3
 BYTE   N11  An3
 BYTE   W12
 BYTE   En3
 BYTE   N11  An3
 BYTE   W12
 BYTE   En3
 BYTE   N11  An3
 BYTE   W72
//  #05 //053   ----------------------------------------
 BYTE   W96
//  #05 //054   ----------------------------------------
 BYTE   W12
 BYTE   Fs4
 BYTE   W12
 BYTE   Dn4
 BYTE   W12
 BYTE   An3
 BYTE   W12
 BYTE   Fs4
 BYTE   W12
 BYTE   Dn4
 BYTE   W12
 BYTE   An3
 BYTE   W12
 BYTE   Fs4
 BYTE   W12
//  #05 //055   ----------------------------------------
 BYTE   Dn4
 BYTE   W12
 BYTE   An3
 BYTE   W12
 BYTE   Fs4
 BYTE   W12
 BYTE   Dn4
 BYTE   W12
 BYTE   An3
 BYTE   W12
 BYTE   Fs4
 BYTE   W12
 BYTE   Dn4
 BYTE   W12
 BYTE   Fs4
 BYTE   W12
//  #05 //056   ----------------------------------------
 BYTE   En3
 BYTE   N11  An3
 BYTE   W12
 BYTE   En3
 BYTE   N11  An3
 BYTE   W12
 BYTE   En3
 BYTE   N11  An3
 BYTE   W36
 BYTE   En3
 BYTE   N11  An3
 BYTE   W36
//  #05 //057   ----------------------------------------
 BYTE   W24
 BYTE   En3
 BYTE   N11  An3
 BYTE   W24
 BYTE   En3
 BYTE   N11  An3
 BYTE   W24
 BYTE   N32  Dn3
 BYTE   N32  Fs3
 BYTE   W24
//  #05 //058   ----------------------------------------
 BYTE   W12
 BYTE   N11  En3
 BYTE   W12
 BYTE   Fs3
 BYTE   W12
 BYTE   Gn3
 BYTE   W12
 BYTE   An3
 BYTE   W12
 BYTE   Gn3
 BYTE   W12
 BYTE   An3
 BYTE   W12
 BYTE   Bn3
 BYTE   W12
//  #05 //059   ----------------------------------------
 BYTE   Cn4
 BYTE   W12
 BYTE   Bn3
 BYTE   W12
 BYTE   Cn4
 BYTE   W12
 BYTE   Dn4
 BYTE   W12
 BYTE   En4
 BYTE   W12
 BYTE   Dn4
 BYTE   W12
 BYTE   En4
 BYTE   W12
 BYTE   Fs4
 BYTE   W12
//  #05 //060   ----------------------------------------
 BYTE   N23  As3  v112
 BYTE   N23  Dn4
 BYTE   W96
//  #05 //061   ----------------------------------------
 BYTE   W96
//  #05 //062   ----------------------------------------
 BYTE   W96
//  #05 //063   ----------------------------------------
 BYTE   W96
//  #05 //064   ----------------------------------------
 BYTE   GoTo
  POIN2 Label_0128D212
 BYTE   FINE

//**************** Track 6 (Midi-Chn.5) ****************//

song1C_006:
//  #06 //000   ----------------------------------------
 BYTE   KEYSH   song1C_key+0
 BYTE   VOICE   34
 BYTE   VOL   41*song1C_mvl/mxv
 BYTE   PAN   c_v-1
 BYTE   PAN   c_v+0
 BYTE   N11  Gn1  v112
 BYTE   W12
 BYTE   N11
 BYTE   W36
 BYTE   Fs1
 BYTE   W12
 BYTE   N11
 BYTE   W36
//  #06 //001   ----------------------------------------
Label_5577BF:
 BYTE   N11  Fn1  v112
 BYTE   W12
 BYTE   N11
 BYTE   W36
 BYTE   En1
 BYTE   W12
 BYTE   N11
 BYTE   W36
 BYTE   PEND 
//  #06 //002   ----------------------------------------
 BYTE   N32  Ds1
 BYTE   W36
 BYTE   N32
 BYTE   W12
 BYTE   W24
 BYTE   N23
 BYTE   W24
//  #06 //003   ----------------------------------------
 BYTE   N32  Fn1
 BYTE   W36
 BYTE   N32
 BYTE   W12
 BYTE   W24
 BYTE   N23
 BYTE   W24
//  #06 //004   ----------------------------------------
 BYTE   N11  Gn1
 BYTE   W12
 BYTE   N11
 BYTE   W36
 BYTE   Fs1
 BYTE   W12
 BYTE   N11
 BYTE   W36
//  #06 //005   ----------------------------------------
 BYTE   PATT
  POIN2 Label_5577BF
//  #06 //006   ----------------------------------------
 BYTE   N32  Dn1  v112
 BYTE   W36
 BYTE   N32
 BYTE   W12
 BYTE   W24
 BYTE   N32
 BYTE   W24
//  #06 //007   ----------------------------------------
 BYTE   W12
 BYTE   N32
 BYTE   W12
 BYTE   W24
 BYTE   N23
 BYTE   W24
 BYTE   N23
 BYTE   W24
//  #06 //008   ----------------------------------------
Label_5577F9:
 BYTE   N11  Gn1  v096
 BYTE   W12
 BYTE   N11
 BYTE   W12
 BYTE   N23
 BYTE   W24
 BYTE   N11
 BYTE   W12
 BYTE   N23
 BYTE   W24
 BYTE   N11
 BYTE   W12
 BYTE   PEND 
//  #06 //009   ----------------------------------------
Label_557808:
 BYTE   N11  Fn1  v096
 BYTE   W12
 BYTE   N11
 BYTE   W12
 BYTE   N23
 BYTE   W24
 BYTE   N11
 BYTE   W12
 BYTE   N23
 BYTE   W24
 BYTE   N11
 BYTE   W12
 BYTE   PEND 
//  #06 //010   ----------------------------------------
 BYTE   PATT
  POIN2 Label_5577F9
//  #06 //011   ----------------------------------------
 BYTE   PATT
  POIN2 Label_557808
//  #06 //012   ----------------------------------------
Label_557821:
 BYTE   N11  Ds1  v096
 BYTE   W12
 BYTE   N11
 BYTE   W12
 BYTE   N23
 BYTE   W24
 BYTE   N11
 BYTE   W12
 BYTE   N23
 BYTE   W24
 BYTE   N11
 BYTE   W12
 BYTE   PEND 
//  #06 //013   ----------------------------------------
 BYTE   PATT
  POIN2 Label_557821
//  #06 //014   ----------------------------------------
 BYTE   N11  Dn1  v096
 BYTE   W12
 BYTE   N11
 BYTE   W12
 BYTE   N23
 BYTE   W24
 BYTE   N11
 BYTE   W12
 BYTE   N23
 BYTE   W24
 BYTE   N11
 BYTE   W12
//  #06 //015   ----------------------------------------
 BYTE   W12
 BYTE   N11
 BYTE   W12
 BYTE   Cn1
 BYTE   W12
 BYTE   Dn1
 BYTE   W12
 BYTE   Ds1
 BYTE   W12
 BYTE   Dn1
 BYTE   W12
 BYTE   Fn1
 BYTE   W12
 BYTE   Fs1
 BYTE   W12
//  #06 //016   ----------------------------------------
 BYTE   PATT
  POIN2 Label_5577F9
//  #06 //017   ----------------------------------------
 BYTE   PATT
  POIN2 Label_557808
//  #06 //018   ----------------------------------------
 BYTE   PATT
  POIN2 Label_557808
//  #06 //019   ----------------------------------------
 BYTE   PATT
  POIN2 Label_5577F9
//  #06 //020   ----------------------------------------
 BYTE   N32  Fs1  v096
 BYTE   W36
 BYTE   N32
 BYTE   W12
 BYTE   W24
 BYTE   Gs1
 BYTE   W24
//  #06 //021   ----------------------------------------
 BYTE   W12
 BYTE   N32
 BYTE   W36
 BYTE   N23
 BYTE   W24
 BYTE   N23
 BYTE   W24
//  #06 //022   ----------------------------------------
 BYTE   N11  An1
 BYTE   W12
 BYTE   N11
 BYTE   W12
 BYTE   N23
 BYTE   W24
 BYTE   N11
 BYTE   W12
 BYTE   N23
 BYTE   W24
 BYTE   N11
 BYTE   W12
//  #06 //023   ----------------------------------------
 BYTE   Bn1
 BYTE   W12
 BYTE   N11
 BYTE   W12
 BYTE   N23
 BYTE   W24
 BYTE   N23
 BYTE   W24
 BYTE   N11
 BYTE   W12
 BYTE   Fs1
 BYTE   W12
//  #06 //024   ----------------------------------------
 BYTE   N23  As1
 BYTE   W24
 BYTE   N23
 BYTE   W24
 BYTE   N11
 BYTE   W12
 BYTE   N23
 BYTE   W24
 BYTE   N11
 BYTE   W12
//  #06 //025   ----------------------------------------
 BYTE   N23  Gs1
 BYTE   W24
 BYTE   N23
 BYTE   W24
 BYTE   N11
 BYTE   W12
 BYTE   N23
 BYTE   W24
 BYTE   N11
 BYTE   W12
//  #06 //026   ----------------------------------------
 BYTE   N23  Fs1
 BYTE   W24
 BYTE   N23
 BYTE   W24
 BYTE   N11
 BYTE   W12
 BYTE   N23
 BYTE   W24
 BYTE   N11
 BYTE   W12
//  #06 //027   ----------------------------------------
 BYTE   N23  Cs1
 BYTE   W24
 BYTE   N23
 BYTE   W24
 BYTE   N11
 BYTE   W12
 BYTE   N23
 BYTE   W24
 BYTE   N11  Ds1
 BYTE   W12
//  #06 //028   ----------------------------------------
 BYTE   N23  Fn1
 BYTE   W24
 BYTE   N23
 BYTE   W24
 BYTE   N11
 BYTE   W12
 BYTE   N23
 BYTE   W24
 BYTE   N11
 BYTE   W12
//  #06 //029   ----------------------------------------
 BYTE   N23  Ds1
 BYTE   W24
 BYTE   N23
 BYTE   W24
 BYTE   N11
 BYTE   W12
 BYTE   N23
 BYTE   W24
 BYTE   N11
 BYTE   W12
//  #06 //030   ----------------------------------------
 BYTE   N23  Cs1
 BYTE   W24
 BYTE   N23
 BYTE   W24
 BYTE   N11
 BYTE   W12
 BYTE   N23
 BYTE   W24
 BYTE   N11
 BYTE   W12
//  #06 //031   ----------------------------------------
 BYTE   N23  Gn1
 BYTE   W24
 BYTE   N23
 BYTE   W24
 BYTE   N11
 BYTE   W12
 BYTE   N23
 BYTE   W24
 BYTE   N11
 BYTE   W12
//  #06 //032   ----------------------------------------
 BYTE   N23  Cn2
 BYTE   W48
 BYTE   N11
 BYTE   W12
 BYTE   N23
 BYTE   W24
 BYTE   N11
 BYTE   W12
//  #06 //033   ----------------------------------------
 BYTE   N23  As1
 BYTE   W48
 BYTE   N11
 BYTE   W12
 BYTE   N23
 BYTE   W24
 BYTE   N11
 BYTE   W12
//  #06 //034   ----------------------------------------
 BYTE   N23  Gs1
 BYTE   W48
 BYTE   N11
 BYTE   W12
 BYTE   N23
 BYTE   W24
 BYTE   N11
 BYTE   W12
//  #06 //035   ----------------------------------------
 BYTE   N23  Gn1
 BYTE   W48
 BYTE   N11
 BYTE   W12
 BYTE   N23
 BYTE   W24
 BYTE   N11
 BYTE   W12
//  #06 //036   ----------------------------------------
Label_55790C:
 BYTE   N32  Fs1  v096
 BYTE   W36
 BYTE   N32
 BYTE   W12
 BYTE   W24
 BYTE   N32
 BYTE   W24
 BYTE   PEND 
//  #06 //037   ----------------------------------------
Label_557916:
 BYTE   W12
 BYTE   N32  Fs1  v096
 BYTE   W36
 BYTE   N23
 BYTE   W24
 BYTE   N23
 BYTE   W24
 BYTE   PEND 
//  #06 //038   ----------------------------------------
Label_557920:
 BYTE   N32  Fn1  v096
 BYTE   W36
 BYTE   N32
 BYTE   W12
 BYTE   W24
 BYTE   N32
 BYTE   W24
 BYTE   PEND 
//  #06 //039   ----------------------------------------
Label_55792A:
 BYTE   W12
 BYTE   N32  Fn1  v096
 BYTE   W36
 BYTE   N23
 BYTE   W24
 BYTE   N23
 BYTE   W24
 BYTE   PEND 
//  #06 //040   ----------------------------------------
 BYTE   N32  Ds1
 BYTE   W36
 BYTE   N32
 BYTE   W12
 BYTE   W24
 BYTE   N32
 BYTE   W24
//  #06 //041   ----------------------------------------
 BYTE   W12
 BYTE   N32
 BYTE   W36
 BYTE   N23
 BYTE   W24
 BYTE   N23
 BYTE   W24
//  #06 //042   ----------------------------------------
 BYTE   Fn1
 BYTE   W24
 BYTE   N23
 BYTE   W24
 BYTE   N23
 BYTE   W24
 BYTE   N23
 BYTE   W24
//  #06 //043   ----------------------------------------
 BYTE   N23
 BYTE   W24
 BYTE   N23
 BYTE   W24
 BYTE   N15
 BYTE   W16
 BYTE   N15
 BYTE   W16
 BYTE   N15
 BYTE   W16
//  #06 //044   ----------------------------------------
 BYTE   PATT
  POIN2 Label_55790C
//  #06 //045   ----------------------------------------
 BYTE   PATT
  POIN2 Label_557916
//  #06 //046   ----------------------------------------
 BYTE   PATT
  POIN2 Label_557920
//  #06 //047   ----------------------------------------
 BYTE   PATT
  POIN2 Label_55792A
//  #06 //048   ----------------------------------------
 BYTE   N23  Ds1  v096
 BYTE   W24
 BYTE   N23
 BYTE   W48
 BYTE   N23
 BYTE   W24
//  #06 //049   ----------------------------------------
 BYTE   Fn1
 BYTE   W24
 BYTE   N23
 BYTE   W48
 BYTE   N23
 BYTE   W24
//  #06 //050   ----------------------------------------
 BYTE   Fs1
 BYTE   W24
 BYTE   N23
 BYTE   W48
 BYTE   N23
 BYTE   W24
//  #06 //051   ----------------------------------------
 BYTE   Gs1
 BYTE   W24
 BYTE   N23
 BYTE   W48
 BYTE   N23
 BYTE   W24
//  #06 //052   ----------------------------------------
 BYTE   N11  An1
 BYTE   W12
 BYTE   N11
 BYTE   W12
 BYTE   N11
 BYTE   W72
//  #06 //053   ----------------------------------------
 BYTE   W48
 BYTE   N11
 BYTE   W24
 BYTE   TIE  Dn1
 BYTE   W24
//  #06 //054   ----------------------------------------
 BYTE   W96
//  #06 //055   ----------------------------------------
Label_557991:
 BYTE   W92
 BYTE   W03
 BYTE   PEND 
 BYTE   EOT
 BYTE   Dn1
 BYTE   W01
//  #06 //056   ----------------------------------------
 BYTE   N11  An1  v096
 BYTE   W12
 BYTE   N11
 BYTE   W12
 BYTE   N11
 BYTE   W36
 BYTE   N11
 BYTE   W36
//  #06 //057   ----------------------------------------
 BYTE   W24
 BYTE   N11
 BYTE   W24
 BYTE   N11
 BYTE   W24
 BYTE   TIE  Dn1
 BYTE   W24
//  #06 //058   ----------------------------------------
 BYTE   W96
//  #06 //059   ----------------------------------------
 BYTE   PATT
  POIN2 Label_557991
//  #06 //060   ----------------------------------------
 BYTE   EOT
 BYTE   Dn1
 BYTE   W01
//  #06 //061   ----------------------------------------
 BYTE   PATT
  POIN2 Label_5577F9
//  #06 //062   ----------------------------------------
 BYTE   PATT
  POIN2 Label_557808
//  #06 //063   ----------------------------------------
 BYTE   PATT
  POIN2 Label_5577F9
//  #06 //064   ----------------------------------------
 BYTE   PATT
  POIN2 Label_557808
//  #06 //065   ----------------------------------------
 BYTE   GoTo
  POIN2 Label_557821
 BYTE   FINE

//**************** Track 7 (Midi-Chn.6) ****************//

song1C_007:
//  #07 //000   ----------------------------------------
 BYTE   VOL   70*song1C_mvl/mxv
 BYTE   KEYSH   song1C_key+0
 BYTE   VOICE   55
 BYTE   W96
//  #07 //001   ----------------------------------------
 BYTE   W96
//  #07 //002   ----------------------------------------
 BYTE   W96
//  #07 //003   ----------------------------------------
 BYTE   W96
//  #07 //004   ----------------------------------------
 BYTE   W96
//  #07 //005   ----------------------------------------
 BYTE   W96
//  #07 //006   ----------------------------------------
 BYTE   W96
//  #07 //007   ----------------------------------------
 BYTE   W96
//  #07 //008   ----------------------------------------
 BYTE   N24  Gn3  v127
 BYTE   N24  Gn4
 BYTE   W96
//  #07 //009   ----------------------------------------
 BYTE   W96
//  #07 //010   ----------------------------------------
 BYTE   W96
//  #07 //011   ----------------------------------------
 BYTE   W96
//  #07 //012   ----------------------------------------
Label_5581EB:
 BYTE   W96
//  #07 //013   ----------------------------------------
 BYTE   W96
//  #07 //014   ----------------------------------------
 BYTE   W96
//  #07 //015   ----------------------------------------
 BYTE   W96
//  #07 //016   ----------------------------------------
 BYTE   N24  Gn3  v127
 BYTE   N23  Gn4
 BYTE   W96
//  #07 //017   ----------------------------------------
 BYTE   W96
//  #07 //018   ----------------------------------------
 BYTE   W96
//  #07 //019   ----------------------------------------
 BYTE   W96
//  #07 //020   ----------------------------------------
 BYTE   W96
//  #07 //021   ----------------------------------------
 BYTE   W96
//  #07 //022   ----------------------------------------
 BYTE   W96
//  #07 //023   ----------------------------------------
 BYTE   W96
//  #07 //024   ----------------------------------------
 BYTE   W96
//  #07 //025   ----------------------------------------
 BYTE   W96
//  #07 //026   ----------------------------------------
 BYTE   W96
//  #07 //027   ----------------------------------------
 BYTE   W96
//  #07 //028   ----------------------------------------
 BYTE   W96
//  #07 //029   ----------------------------------------
 BYTE   W96
//  #07 //030   ----------------------------------------
 BYTE   W96
//  #07 //031   ----------------------------------------
 BYTE   W96
//  #07 //032   ----------------------------------------
 BYTE   W96
//  #07 //033   ----------------------------------------
 BYTE   W96
//  #07 //034   ----------------------------------------
 BYTE   W96
//  #07 //035   ----------------------------------------
 BYTE   W96
//  #07 //036   ----------------------------------------
 BYTE   W96
//  #07 //037   ----------------------------------------
 BYTE   W96
//  #07 //038   ----------------------------------------
 BYTE   W96
//  #07 //039   ----------------------------------------
 BYTE   W96
//  #07 //040   ----------------------------------------
 BYTE   W96
//  #07 //041   ----------------------------------------
 BYTE   W96
//  #07 //042   ----------------------------------------
 BYTE   W96
//  #07 //043   ----------------------------------------
 BYTE   W96
//  #07 //044   ----------------------------------------
 BYTE   W96
//  #07 //045   ----------------------------------------
 BYTE   W96
//  #07 //046   ----------------------------------------
 BYTE   W96
//  #07 //047   ----------------------------------------
 BYTE   W96
//  #07 //048   ----------------------------------------
 BYTE   W96
//  #07 //049   ----------------------------------------
 BYTE   W96
//  #07 //050   ----------------------------------------
 BYTE   W96
//  #07 //051   ----------------------------------------
 BYTE   W96
//  #07 //052   ----------------------------------------
 BYTE   W96
//  #07 //053   ----------------------------------------
 BYTE   W96
//  #07 //054   ----------------------------------------
 BYTE   W96
//  #07 //055   ----------------------------------------
 BYTE   W96
//  #07 //056   ----------------------------------------
 BYTE   W96
//  #07 //057   ----------------------------------------
 BYTE   W96
//  #07 //058   ----------------------------------------
 BYTE   W96
//  #07 //059   ----------------------------------------
 BYTE   W96
//  #07 //060   ----------------------------------------
 BYTE   N24  Gn3
 BYTE   N24  Gn4
 BYTE   W96
//  #07 //061   ----------------------------------------
 BYTE   W96
//  #07 //062   ----------------------------------------
 BYTE   W96
//  #07 //063   ----------------------------------------
 BYTE   W96
//  #07 //064   ----------------------------------------
 BYTE   GoTo
  POIN2 Label_5581EB
 BYTE   FINE

//**************** Track 8 (Midi-Chn.7) ****************//

song1C_008:
//  #08 //000   ----------------------------------------
 BYTE   KEYSH   song1C_key+0
 BYTE   VOICE   47
 BYTE   VOL   48*song1C_mvl/mxv
 BYTE   PAN   c_v+0
 BYTE   PAN   c_v+0
 BYTE   N11  Gn1  v112
 BYTE   W12
 BYTE   N11
 BYTE   W36
 BYTE   Fs1
 BYTE   W12
 BYTE   N11
 BYTE   W36
//  #08 //001   ----------------------------------------
Label_0128D4EF:
 BYTE   N11  Fn1  v112
 BYTE   W12
 BYTE   N11
 BYTE   W36
 BYTE   En1
 BYTE   W12
 BYTE   N11
 BYTE   W36
 BYTE   PEND 
//  #08 //002   ----------------------------------------
 BYTE   N32  Ds1
 BYTE   W36
 BYTE   N32
 BYTE   W36
 BYTE   N23
 BYTE   W24
//  #08 //003   ----------------------------------------
 BYTE   N32  Fn1
 BYTE   W36
 BYTE   N32
 BYTE   W36
 BYTE   N23
 BYTE   W24
//  #08 //004   ----------------------------------------
 BYTE   N11  Gn1
 BYTE   W12
 BYTE   N11
 BYTE   W36
 BYTE   Fs1
 BYTE   W12
 BYTE   N11
 BYTE   W36
//  #08 //005   ----------------------------------------
 BYTE   PATT
  POIN2 Label_0128D4EF
//  #08 //006   ----------------------------------------
 BYTE   N32  Dn1  v112
 BYTE   W36
 BYTE   N32
 BYTE   W36
 BYTE   N32
 BYTE   W24
//  #08 //007   ----------------------------------------
 BYTE   W12
 BYTE   N32
 BYTE   W36
 BYTE   N23
 BYTE   W24
 BYTE   N23
 BYTE   W24
//  #08 //008   ----------------------------------------
Label_0128D525:
 BYTE   N44  Gn1  v096
 BYTE   W48
 BYTE   N44
 BYTE   W48
 BYTE   PEND 
//  #08 //009   ----------------------------------------
Label_0128D52C:
 BYTE   N44  Fn1  v096
 BYTE   W48
 BYTE   N44
 BYTE   W48
 BYTE   PEND 
//  #08 //010   ----------------------------------------
 BYTE   PATT
  POIN2 Label_0128D525
//  #08 //011   ----------------------------------------
 BYTE   PATT
  POIN2 Label_0128D52C
//  #08 //012   ----------------------------------------
Label_0128D53D:
 BYTE   N44  Ds1  v096
 BYTE   W48
 BYTE   N44
 BYTE   W48
 BYTE   PEND 
//  #08 //013   ----------------------------------------
 BYTE   PATT
  POIN2 Label_0128D53D
//  #08 //014   ----------------------------------------
 BYTE   N44  Dn1  v096
 BYTE   W48
 BYTE   N44
 BYTE   W48
//  #08 //015   ----------------------------------------
 BYTE   N23
 BYTE   W24
 BYTE   N44
 BYTE   W48
 BYTE   N23
 BYTE   W24
//  #08 //016   ----------------------------------------
 BYTE   PATT
  POIN2 Label_0128D525
//  #08 //017   ----------------------------------------
 BYTE   PATT
  POIN2 Label_0128D52C
//  #08 //018   ----------------------------------------
 BYTE   PATT
  POIN2 Label_0128D52C
//  #08 //019   ----------------------------------------
 BYTE   PATT
  POIN2 Label_0128D525
//  #08 //020   ----------------------------------------
 BYTE   N32  Fs1  v096
 BYTE   W36
 BYTE   N32
 BYTE   W36
 BYTE   Gs1
 BYTE   W24
//  #08 //021   ----------------------------------------
 BYTE   W12
 BYTE   N32
 BYTE   W36
 BYTE   N23
 BYTE   W24
 BYTE   N23
 BYTE   W24
//  #08 //022   ----------------------------------------
 BYTE   An1
 BYTE   W24
 BYTE   N44
 BYTE   W48
 BYTE   N23
 BYTE   W24
//  #08 //023   ----------------------------------------
 BYTE   Bn1
 BYTE   W24
 BYTE   N44
 BYTE   W48
 BYTE   N23
 BYTE   W24
//  #08 //024   ----------------------------------------
 BYTE   As1
 BYTE   W24
 BYTE   N44
 BYTE   W48
 BYTE   N23
 BYTE   W24
//  #08 //025   ----------------------------------------
 BYTE   Gs1
 BYTE   W24
 BYTE   N44
 BYTE   W48
 BYTE   N23
 BYTE   W24
//  #08 //026   ----------------------------------------
 BYTE   Fs1
 BYTE   W24
 BYTE   N44
 BYTE   W48
 BYTE   N23
 BYTE   W24
//  #08 //027   ----------------------------------------
 BYTE   Cs1
 BYTE   W24
 BYTE   N44
 BYTE   W48
 BYTE   N11
 BYTE   W12
 BYTE   Ds1
 BYTE   W12
//  #08 //028   ----------------------------------------
 BYTE   N23  Fn1
 BYTE   W24
 BYTE   N44
 BYTE   W48
 BYTE   N23
 BYTE   W24
//  #08 //029   ----------------------------------------
 BYTE   Ds1
 BYTE   W24
 BYTE   N44
 BYTE   W48
 BYTE   N23
 BYTE   W24
//  #08 //030   ----------------------------------------
 BYTE   Cs1
 BYTE   W24
 BYTE   N44
 BYTE   W48
 BYTE   N23
 BYTE   W24
//  #08 //031   ----------------------------------------
 BYTE   Gn1
 BYTE   W24
 BYTE   N44
 BYTE   W48
 BYTE   N23
 BYTE   W24
//  #08 //032   ----------------------------------------
 BYTE   Cn2
 BYTE   W48
 BYTE   N23
 BYTE   W48
//  #08 //033   ----------------------------------------
 BYTE   As1
 BYTE   W48
 BYTE   N23
 BYTE   W48
//  #08 //034   ----------------------------------------
 BYTE   Gs1
 BYTE   W48
 BYTE   N23
 BYTE   W48
//  #08 //035   ----------------------------------------
 BYTE   Gn1
 BYTE   W48
 BYTE   N23
 BYTE   W48
//  #08 //036   ----------------------------------------
Label_0128D5C7:
 BYTE   N32  Fs1  v096
 BYTE   W36
 BYTE   N32
 BYTE   W36
 BYTE   N32
 BYTE   W24
 BYTE   PEND 
//  #08 //037   ----------------------------------------
Label_0128D5D0:
 BYTE   W12
 BYTE   N32  Fs1  v096
 BYTE   W36
 BYTE   N23
 BYTE   W24
 BYTE   N23
 BYTE   W24
 BYTE   PEND 
//  #08 //038   ----------------------------------------
Label_0128D5DA:
 BYTE   N32  Fn1  v096
 BYTE   W36
 BYTE   N32
 BYTE   W36
 BYTE   N32
 BYTE   W24
 BYTE   PEND 
//  #08 //039   ----------------------------------------
Label_0128D5E3:
 BYTE   W12
 BYTE   N32  Fn1  v096
 BYTE   W36
 BYTE   N23
 BYTE   W24
 BYTE   N23
 BYTE   W24
 BYTE   PEND 
//  #08 //040   ----------------------------------------
 BYTE   N32  Ds1
 BYTE   W36
 BYTE   N32
 BYTE   W36
 BYTE   N32
 BYTE   W24
//  #08 //041   ----------------------------------------
 BYTE   W12
 BYTE   N32
 BYTE   W36
 BYTE   N23
 BYTE   W24
 BYTE   N23
 BYTE   W24
//  #08 //042   ----------------------------------------
 BYTE   Fn1
 BYTE   W24
 BYTE   N23
 BYTE   W24
 BYTE   N23
 BYTE   W24
 BYTE   N23
 BYTE   W24
//  #08 //043   ----------------------------------------
 BYTE   N23
 BYTE   W24
 BYTE   N23
 BYTE   W24
 BYTE   N15
 BYTE   W16
 BYTE   N15
 BYTE   W16
 BYTE   N15
 BYTE   W16
//  #08 //044   ----------------------------------------
 BYTE   PATT
  POIN2 Label_0128D5C7
//  #08 //045   ----------------------------------------
 BYTE   PATT
  POIN2 Label_0128D5D0
//  #08 //046   ----------------------------------------
 BYTE   PATT
  POIN2 Label_0128D5DA
//  #08 //047   ----------------------------------------
 BYTE   PATT
  POIN2 Label_0128D5E3
//  #08 //048   ----------------------------------------
 BYTE   N23  Ds1  v096
 BYTE   W24
 BYTE   N23
 BYTE   W48
 BYTE   N23
 BYTE   W24
//  #08 //049   ----------------------------------------
 BYTE   Fn1
 BYTE   W24
 BYTE   N23
 BYTE   W48
 BYTE   N23
 BYTE   W24
//  #08 //050   ----------------------------------------
 BYTE   Fs1
 BYTE   W24
 BYTE   N23
 BYTE   W48
 BYTE   N23
 BYTE   W24
//  #08 //051   ----------------------------------------
 BYTE   Gs1
 BYTE   W24
 BYTE   N23
 BYTE   W48
 BYTE   N23
 BYTE   W24
//  #08 //052   ----------------------------------------
 BYTE   N11  An1
 BYTE   W12
 BYTE   N11
 BYTE   W12
 BYTE   N11
 BYTE   W72
//  #08 //053   ----------------------------------------
 BYTE   W48
 BYTE   N11
 BYTE   W24
 BYTE   TIE  Dn1
 BYTE   W24
//  #08 //054   ----------------------------------------
 BYTE   W96
//  #08 //055   ----------------------------------------
 BYTE   W92
 BYTE   W03
 BYTE   EOT
 BYTE   W01
//  #08 //056   ----------------------------------------
 BYTE   N11  An1
 BYTE   W12
 BYTE   N11
 BYTE   W12
 BYTE   N11
 BYTE   W36
 BYTE   N11
 BYTE   W36
//  #08 //057   ----------------------------------------
 BYTE   W24
 BYTE   N11
 BYTE   W24
 BYTE   N11
 BYTE   W24
 BYTE   N23  Dn1
 BYTE   W24
//  #08 //058   ----------------------------------------
 BYTE   N23
 BYTE   W24
 BYTE   An1
 BYTE   W24
 BYTE   Dn1
 BYTE   W24
 BYTE   An1
 BYTE   W24
//  #08 //059   ----------------------------------------
 BYTE   Dn1
 BYTE   W24
 BYTE   An1
 BYTE   W24
 BYTE   Dn1
 BYTE   W24
 BYTE   N23
 BYTE   W24
//  #08 //060   ----------------------------------------
 BYTE   PATT
  POIN2 Label_0128D525
//  #08 //061   ----------------------------------------
 BYTE   PATT
  POIN2 Label_0128D52C
//  #08 //062   ----------------------------------------
 BYTE   PATT
  POIN2 Label_0128D525
//  #08 //063   ----------------------------------------
 BYTE   PATT
  POIN2 Label_0128D52C
//  #08 //064   ----------------------------------------
 BYTE   GoTo
  POIN2 Label_0128D53D
 BYTE   FINE

//**************** Track 9 (Midi-Chn.8) ****************//

song1C_009:
//  #09 //000   ----------------------------------------
 BYTE   KEYSH   song1C_key+0
 BYTE   VOICE   124
 BYTE   VOL   41*song1C_mvl/mxv
 BYTE   PAN   c_v+0
 BYTE   En3  v064
 BYTE   En3  v064
 BYTE   N23  Cn1  v096
 BYTE   N11  Dn1  v080
 BYTE   N23  An2  v096
 BYTE   W12
 BYTE   N11  Dn1  v080
 BYTE   W12
 BYTE   N05  Gn1  v096
 BYTE   W06
 BYTE   N05
 BYTE   W06
 BYTE   N02  Dn1  v080
 BYTE   N05  Fn1  v096
 BYTE   W03
 BYTE   N02  Dn1  v080
 BYTE   W03
 BYTE   N02
 BYTE   N05  Fn1  v096
 BYTE   W03
 BYTE   N02  Dn1  v080
 BYTE   W03
 BYTE   N23  Cn1  v096
 BYTE   N11  Dn1  v080
 BYTE   N23  An2  v096
 BYTE   W12
 BYTE   N11  Dn1  v080
 BYTE   W12
 BYTE   N05  Gn1  v096
 BYTE   W06
 BYTE   N05
 BYTE   W06
 BYTE   N02  Dn1  v080
 BYTE   N05  Fn1  v096
 BYTE   W03
 BYTE   N02  Dn1  v080
 BYTE   W03
 BYTE   N02
 BYTE   N05  Fn1  v096
 BYTE   W03
 BYTE   N02  Dn1  v080
 BYTE   W03
//  #09 //001   ----------------------------------------
Label_0128E10C:
 BYTE   N23  Cn1  v096
 BYTE   N11  Dn1  v080
 BYTE   N23  An2  v096
 BYTE   W12
 BYTE   N11  Dn1  v080
 BYTE   W12
 BYTE   N05  Gn1  v096
 BYTE   W06
 BYTE   N05
 BYTE   W06
 BYTE   N02  Dn1  v080
 BYTE   N05  Fn1  v096
 BYTE   W03
 BYTE   N02  Dn1  v080
 BYTE   W03
 BYTE   N02
 BYTE   N05  Fn1  v096
 BYTE   W03
 BYTE   N02  Dn1  v080
 BYTE   W03
 BYTE   N23  Cn1  v096
 BYTE   N11  Dn1  v080
 BYTE   N23  An2  v096
 BYTE   W12
 BYTE   N11  Dn1  v080
 BYTE   W12
 BYTE   N05  Gn1  v096
 BYTE   W06
 BYTE   N05
 BYTE   W06
 BYTE   N02  Dn1  v080
 BYTE   N05  Fn1  v096
 BYTE   W03
 BYTE   N02  Dn1  v080
 BYTE   W03
 BYTE   N02
 BYTE   N05  Fn1  v096
 BYTE   W03
 BYTE   N02  Dn1  v080
 BYTE   W03
 BYTE   PEND 
//  #09 //002   ----------------------------------------
 BYTE   N23  Cn1  v096
 BYTE   N11  Dn1  v080
 BYTE   N11  Fs1
 BYTE   N23  An2  v096
 BYTE   W12
 BYTE   N11  Dn1  v080
 BYTE   N11  Fs1
 BYTE   N11  Gn1  v096
 BYTE   W12
 BYTE   N17  Dn1  v080
 BYTE   N11  Fs1
 BYTE   W12
 BYTE   Cn1  v096
 BYTE   N11  Fs1  v080
 BYTE   N11  Gn1  v096
 BYTE   N11  An2
 BYTE   W06
 BYTE   N05  Dn1  v080
 BYTE   W06
 BYTE   N11
 BYTE   N11  Fs1
 BYTE   W12
 BYTE   Dn1
 BYTE   N11  Fs1
 BYTE   N11  Gn1  v096
 BYTE   W12
 BYTE   N23  Cn1
 BYTE   N11  Dn1  v080
 BYTE   N11  Fs1
 BYTE   N23  An2  v096
 BYTE   W12
 BYTE   N11  Dn1  v080
 BYTE   N11  Fs1
 BYTE   N11  Gn1  v096
 BYTE   W12
//  #09 //003   ----------------------------------------
 BYTE   N23  Cn1
 BYTE   N23  Dn1  v080
 BYTE   N11  Fs1
 BYTE   W12
 BYTE   N11
 BYTE   N11  Gn1  v096
 BYTE   N11  An2
 BYTE   W12
 BYTE   N23  Dn1  v080
 BYTE   N11  Fs1
 BYTE   W12
 BYTE   Cn1  v096
 BYTE   N11  Fs1  v080
 BYTE   N11  Gn1  v096
 BYTE   W12
 BYTE   N23  Dn1  v080
 BYTE   N11  Fs1
 BYTE   N23  An2  v096
 BYTE   W12
 BYTE   N11  Fs1  v080
 BYTE   N11  Gn1  v096
 BYTE   W12
 BYTE   N23  Cn1
 BYTE   N11  Dn1  v080
 BYTE   N11  Fs1
 BYTE   N23  An2  v096
 BYTE   W12
 BYTE   N02  Dn1  v080
 BYTE   N11  Fs1
 BYTE   N11  Gn1  v096
 BYTE   W03
 BYTE   N02  Dn1  v080
 BYTE   W03
 BYTE   N02
 BYTE   W03
 BYTE   N02
 BYTE   W03
//  #09 //004   ----------------------------------------
 BYTE   PATT
  POIN2 Label_0128E10C
//  #09 //005   ----------------------------------------
 BYTE   PATT
  POIN2 Label_0128E10C
//  #09 //006   ----------------------------------------
 BYTE   N23  Cn1  v096
 BYTE   N11  Dn1
 BYTE   N11  Fn1  v127
 BYTE   N23  As1  v080
 BYTE   N23  An2  v096
 BYTE   W12
 BYTE   N11  Dn1  v064
 BYTE   N11  Fn1  v096
 BYTE   N11  Gs1  v080
 BYTE   W12
 BYTE   Dn1  v064
 BYTE   N11  Fn1  v096
 BYTE   N11  Gs1  v080
 BYTE   W12
 BYTE   Cn1  v096
 BYTE   N11  Dn1
 BYTE   N11  Fn1  v127
 BYTE   N11  As1  v080
 BYTE   N11  An2  v096
 BYTE   W12
 BYTE   Dn1  v064
 BYTE   N11  Fn1  v096
 BYTE   N11  Gs1  v080
 BYTE   W12
 BYTE   Dn1  v064
 BYTE   N11  Fn1  v096
 BYTE   N11  Gs1  v080
 BYTE   W12
 BYTE   N23  Cn1  v096
 BYTE   N11  Dn1
 BYTE   N11  Fn1  v127
 BYTE   N23  As1  v080
 BYTE   N23  An2  v096
 BYTE   W12
 BYTE   N11  Dn1  v064
 BYTE   N11  Fn1  v096
 BYTE   N11  Gs1  v080
 BYTE   W12
//  #09 //007   ----------------------------------------
 BYTE   Dn1  v064
 BYTE   N11  Fn1  v096
 BYTE   N11  Gs1  v080
 BYTE   W12
 BYTE   Cn1  v096
 BYTE   N11  Dn1
 BYTE   N11  Fn1  v127
 BYTE   N11  As1  v080
 BYTE   N11  An2  v096
 BYTE   W12
 BYTE   Dn1  v064
 BYTE   N11  Fn1  v096
 BYTE   N11  Gs1  v080
 BYTE   W12
 BYTE   Dn1  v064
 BYTE   N11  Fn1  v096
 BYTE   N11  Gs1  v080
 BYTE   W12
 BYTE   N23  Cn1  v096
 BYTE   N11  Dn1
 BYTE   N23  Fn1
 BYTE   N11  As1  v080
 BYTE   N23  An2  v096
 BYTE   W12
 BYTE   N11  Dn1  v064
 BYTE   N11  Gs1  v080
 BYTE   W12
 BYTE   N23  Cn1  v096
 BYTE   N11  Dn1
 BYTE   N23  Fn1
 BYTE   N11  As1  v080
 BYTE   N23  An2  v096
 BYTE   W12
 BYTE   N02  Dn1  v064
 BYTE   N11  Gs1  v080
 BYTE   W03
 BYTE   N02  Dn1  v064
 BYTE   W03
 BYTE   N02
 BYTE   W03
 BYTE   N02
 BYTE   W03
//  #09 //008   ----------------------------------------
Label_0128E2B0:
 BYTE   N23  Cn1  v096
 BYTE   N23  Dn1  v064
 BYTE   N23  Fn1  v096
 BYTE   N23  Cs2
 BYTE   W12
 BYTE   N11  Fs1  v080
 BYTE   W12
 BYTE   N23  Cn1
 BYTE   N17  Dn1
 BYTE   N23  Fn1  v096
 BYTE   N11  Fs1  v080
 BYTE   W12
 BYTE   N11
 BYTE   W06
 BYTE   N05  Dn1
 BYTE   W06
 BYTE   N11
 BYTE   N11  Fn1  v096
 BYTE   W12
 BYTE   Dn1  v080
 BYTE   N23  Fn1  v096
 BYTE   N11  Fs1  v080
 BYTE   W12
 BYTE   N23  Cn1
 BYTE   N11  Dn1
 BYTE   N11  Fs1
 BYTE   W12
 BYTE   Dn1
 BYTE   N11  Fn1  v096
 BYTE   N11  Fs1  v080
 BYTE   W12
 BYTE   PEND 
//  #09 //009   ----------------------------------------
Label_0128E2EE:
 BYTE   N23  Cn1  v080
 BYTE   N11  Dn1
 BYTE   N23  Fn1  v096
 BYTE   W12
 BYTE   N11  Dn1  v080
 BYTE   N11  Fs1
 BYTE   W12
 BYTE   N23  Cn1
 BYTE   N17  Dn1
 BYTE   N23  Fn1  v096
 BYTE   N11  Fs1  v080
 BYTE   W12
 BYTE   N11
 BYTE   W06
 BYTE   N05  Dn1
 BYTE   W06
 BYTE   N11
 BYTE   N11  Fn1  v096
 BYTE   W12
 BYTE   Dn1  v080
 BYTE   N23  Fn1  v096
 BYTE   N11  Fs1  v080
 BYTE   W12
 BYTE   N23  Cn1
 BYTE   N11  Dn1
 BYTE   N11  Fs1
 BYTE   W12
 BYTE   Dn1
 BYTE   N11  Fn1  v096
 BYTE   N11  Fs1  v080
 BYTE   W12
 BYTE   PEND 
//  #09 //010   ----------------------------------------
Label_0128E32B:
 BYTE   N23  Cn1  v080
 BYTE   N23  Dn1
 BYTE   N23  Fn1  v096
 BYTE   W12
 BYTE   N11  Fs1  v080
 BYTE   W12
 BYTE   N23  Cn1
 BYTE   N17  Dn1
 BYTE   N23  Fn1  v096
 BYTE   N11  Fs1  v080
 BYTE   W12
 BYTE   N11
 BYTE   W06
 BYTE   N05  Dn1
 BYTE   W06
 BYTE   N11
 BYTE   N11  Fn1  v096
 BYTE   W12
 BYTE   Dn1  v080
 BYTE   N23  Fn1  v096
 BYTE   N11  Fs1  v080
 BYTE   W12
 BYTE   N23  Cn1
 BYTE   N11  Dn1
 BYTE   N11  Fs1
 BYTE   W12
 BYTE   Dn1
 BYTE   N11  Fn1  v096
 BYTE   N11  Fs1  v080
 BYTE   W12
 BYTE   PEND 
//  #09 //011   ----------------------------------------
Label_0128E366:
 BYTE   N23  Cn1  v080
 BYTE   N11  Dn1
 BYTE   N23  Fn1  v096
 BYTE   W12
 BYTE   N11  Dn1  v080
 BYTE   N11  Fs1
 BYTE   W12
 BYTE   N23  Cn1
 BYTE   N17  Dn1
 BYTE   N23  Fn1  v096
 BYTE   N11  Fs1  v080
 BYTE   W12
 BYTE   N11
 BYTE   W06
 BYTE   N05  Dn1
 BYTE   W06
 BYTE   N11
 BYTE   N23  Fn1  v096
 BYTE   W12
 BYTE   N11  Dn1  v080
 BYTE   N11  Fs1
 BYTE   W12
 BYTE   N23  Cn1
 BYTE   N11  Dn1
 BYTE   N05  Fn1  v096
 BYTE   N11  Fs1  v080
 BYTE   W06
 BYTE   Fn1  v096
 BYTE   W06
 BYTE   Dn1  v080
 BYTE   N11  Fs1
 BYTE   W06
 BYTE   N05  Fn1  v096
 BYTE   W06
 BYTE   PEND 
//  #09 //012   ----------------------------------------
Label_0128E3A8:
//  #09 //013   ----------------------------------------
 BYTE   PATT
  POIN2 Label_0128E32B
//  #09 //014   ----------------------------------------
 BYTE   N23  Cn1  v080
 BYTE   N11  Dn1
 BYTE   N23  Fn1  v096
 BYTE   W12
 BYTE   N11  Dn1  v080
 BYTE   N11  Fs1
 BYTE   W12
 BYTE   N23  Cn1
 BYTE   N17  Dn1
 BYTE   N11  Fs1
 BYTE   W12
 BYTE   N11
 BYTE   W06
 BYTE   N05  Dn1
 BYTE   W06
 BYTE   N11
 BYTE   N23  Fn1  v096
 BYTE   W12
 BYTE   N11  Dn1  v080
 BYTE   N11  Fs1
 BYTE   W12
 BYTE   N23  Cn1
 BYTE   N11  Dn1
 BYTE   N05  Fn1  v096
 BYTE   N11  Fs1  v080
 BYTE   W06
 BYTE   Fn1  v096
 BYTE   W06
 BYTE   Dn1  v080
 BYTE   N11  Fs1
 BYTE   W06
 BYTE   N05  Fn1  v096
 BYTE   W06
//  #09 //015   ----------------------------------------
 BYTE   N23  Cn1  v080
 BYTE   N11  Dn1
 BYTE   N23  Gn1  v096
 BYTE   N23  Gs1  v080
 BYTE   W12
 BYTE   N11  Dn1
 BYTE   N11  As1
 BYTE   N11  En2  v096
 BYTE   W12
 BYTE   N05  Dn1  v080
 BYTE   N23  Gn1  v096
 BYTE   N11  Gs1  v080
 BYTE   W06
 BYTE   N05  Dn1
 BYTE   W06
 BYTE   N02
 BYTE   N11  Gs1
 BYTE   W03
 BYTE   N02  Dn1
 BYTE   W03
 BYTE   N02
 BYTE   W03
 BYTE   N02
 BYTE   W03
 BYTE   N23  Cn1
 BYTE   N11  Dn1
 BYTE   N11  Gn1  v096
 BYTE   N23  Gs1  v080
 BYTE   N23  En2  v096
 BYTE   W12
 BYTE   N11  Dn1  v080
 BYTE   N23  Gn1  v096
 BYTE   N11  As1  v080
 BYTE   W12
 BYTE   N05  Dn1
 BYTE   N11  Gs1
 BYTE   W06
 BYTE   N05  Dn1
 BYTE   W06
 BYTE   N02
 BYTE   N11  Gn1  v096
 BYTE   N11  Gs1  v080
 BYTE   N11  En2  v096
 BYTE   W03
 BYTE   N02  Dn1  v080
 BYTE   W03
 BYTE   N02
 BYTE   W03
 BYTE   N02
 BYTE   W03
//  #09 //016   ----------------------------------------
 BYTE   N23  Cn1
 BYTE   N05  Dn1
 BYTE   N11  Gs1
 BYTE   W06
 BYTE   Dn1
 BYTE   W06
 BYTE   Fs1
 BYTE   N11  Bn1  v096
 BYTE   N11  En2
 BYTE   W06
 BYTE   N05  Dn1  v080
 BYTE   W06
 BYTE   N23  Cn1
 BYTE   N05  Dn1
 BYTE   N11  Fs1
 BYTE   N11  Bn1  v096
 BYTE   W06
 BYTE   Dn1  v080
 BYTE   W06
 BYTE   Fs1
 BYTE   N11  Bn1  v096
 BYTE   W06
 BYTE   N05  Dn1  v080
 BYTE   W06
 BYTE   N23  Cn1
 BYTE   N11  Dn1
 BYTE   N11  Bn1  v096
 BYTE   N23  En2
 BYTE   W12
 BYTE   N05  Dn1  v080
 BYTE   N11  As1
 BYTE   N11  Bn1  v096
 BYTE   W06
 BYTE   N05  Dn1  v080
 BYTE   W06
 BYTE   N23  Cn1
 BYTE   N05  Dn1
 BYTE   N05  An1  v096
 BYTE   N23  En2
 BYTE   W06
 BYTE   N05  Dn1  v080
 BYTE   N05  An1  v096
 BYTE   W06
 BYTE   Dn1  v080
 BYTE   N05  Gn1  v096
 BYTE   N11  As1  v080
 BYTE   W06
 BYTE   N05  Dn1
 BYTE   N05  Gn1  v096
 BYTE   W06
//  #09 //017   ----------------------------------------
Label_0128E4AA:
 BYTE   N23  Cn1  v080
 BYTE   N23  Dn1
 BYTE   N23  Fn1  v096
 BYTE   N11  Gs1  v080
 BYTE   N23  An2  v096
 BYTE   W12
 BYTE   N11  Fs1  v080
 BYTE   W12
 BYTE   N23  Cn1
 BYTE   N17  Dn1
 BYTE   N23  Fn1  v096
 BYTE   N11  Fs1  v080
 BYTE   W12
 BYTE   N11
 BYTE   W06
 BYTE   N05  Dn1
 BYTE   W06
 BYTE   N11
 BYTE   N11  Fn1  v096
 BYTE   W12
 BYTE   Dn1  v080
 BYTE   N23  Fn1  v096
 BYTE   N11  Fs1  v080
 BYTE   W12
 BYTE   N23  Cn1
 BYTE   N11  Dn1
 BYTE   N11  Fs1
 BYTE   W12
 BYTE   Dn1
 BYTE   N11  Fn1  v096
 BYTE   N11  Fs1  v080
 BYTE   W12
 BYTE   PEND 
//  #09 //018   ----------------------------------------
Label_0128E4EB:
 BYTE   N23  Cn1  v080
 BYTE   N11  Dn1
 BYTE   N23  Fn1  v096
 BYTE   W12
 BYTE   N11  Dn1  v080
 BYTE   N11  Fs1
 BYTE   W12
 BYTE   N23  Cn1
 BYTE   N17  Dn1
 BYTE   N23  Fn1  v096
 BYTE   N11  Fs1  v080
 BYTE   W12
 BYTE   N11
 BYTE   W06
 BYTE   N05  Dn1
 BYTE   W06
 BYTE   N11
 BYTE   N11  Fn1  v096
 BYTE   W12
 BYTE   Dn1  v080
 BYTE   N23  Fn1  v096
 BYTE   N11  Fs1  v080
 BYTE   W12
 BYTE   N23  Cn1
 BYTE   N05  Dn1
 BYTE   N11  Fs1
 BYTE   W06
 BYTE   N05  Dn1
 BYTE   W06
 BYTE   N05
 BYTE   N11  Fn1  v096
 BYTE   N11  Fs1  v080
 BYTE   W06
 BYTE   N05  Dn1
 BYTE   W06
 BYTE   PEND 
//  #09 //019   ----------------------------------------
 BYTE   PATT
  POIN2 Label_0128E32B
//  #09 //020   ----------------------------------------
 BYTE   N23  Cn1  v080
 BYTE   N11  Dn1
 BYTE   N23  Fn1  v096
 BYTE   W12
 BYTE   N11  Dn1  v080
 BYTE   N11  Fs1
 BYTE   W12
 BYTE   N23  Cn1
 BYTE   N17  Dn1
 BYTE   N11  Fs1
 BYTE   W12
 BYTE   N11
 BYTE   W06
 BYTE   N05  Dn1
 BYTE   W06
 BYTE   N11
 BYTE   N23  Fn1  v096
 BYTE   W12
 BYTE   N11  Dn1  v080
 BYTE   N11  Fs1
 BYTE   W12
 BYTE   N23  Cn1
 BYTE   N05  Dn1
 BYTE   N05  Fn1  v096
 BYTE   N11  Fs1  v080
 BYTE   W06
 BYTE   Dn1
 BYTE   N11  Fn1  v096
 BYTE   W06
 BYTE   Fs1  v080
 BYTE   W06
 BYTE   N05  Dn1
 BYTE   N05  Fn1  v096
 BYTE   W06
//  #09 //021   ----------------------------------------
Label_0128E572:
 BYTE   N23  Cn1  v080
 BYTE   N11  Dn1  v120
 BYTE   N23  Gn1  v096
 BYTE   N23  An2
 BYTE   W12
 BYTE   N11  Dn1  v080
 BYTE   W12
 BYTE   N11
 BYTE   W12
 BYTE   Cn1
 BYTE   N11  Dn1  v120
 BYTE   N11  Gn1  v096
 BYTE   N11  An2
 BYTE   W12
 BYTE   Dn1  v080
 BYTE   W12
 BYTE   N11
 BYTE   W12
 BYTE   N23  Cn1
 BYTE   N11  Dn1  v120
 BYTE   N23  Gn1  v096
 BYTE   N23  An2
 BYTE   W12
 BYTE   N11  Dn1  v080
 BYTE   W12
 BYTE   PEND 
//  #09 //022   ----------------------------------------
Label_0128E5A3:
 BYTE   N11  Dn1  v080
 BYTE   W12
 BYTE   Cn1
 BYTE   N11  Dn1  v120
 BYTE   N11  Gn1  v096
 BYTE   N11  An2
 BYTE   W12
 BYTE   Dn1  v080
 BYTE   W12
 BYTE   N11
 BYTE   W12
 BYTE   N23  Cn1
 BYTE   N11  Dn1  v120
 BYTE   N23  Gn1  v096
 BYTE   N23  An2
 BYTE   W12
 BYTE   N11  Dn1  v080
 BYTE   W12
 BYTE   N23  Cn1
 BYTE   N11  Dn1  v120
 BYTE   N11  Gn1  v096
 BYTE   N23  An2
 BYTE   W12
 BYTE   N02  Dn1  v080
 BYTE   N11  Gn1  v096
 BYTE   W03
 BYTE   N02  Dn1  v080
 BYTE   W03
 BYTE   N02
 BYTE   W03
 BYTE   N02
 BYTE   W03
 BYTE   PEND 
//  #09 //023   ----------------------------------------
 BYTE   N23  Cn1
 BYTE   N11  Dn1
 BYTE   N23  Gn1  v096
 BYTE   N23  Cs2
 BYTE   W12
 BYTE   N11  Dn1  v080
 BYTE   N11  Fs1
 BYTE   W12
 BYTE   N17  Dn1
 BYTE   N11  Fs1
 BYTE   N23  Gn1  v096
 BYTE   W12
 BYTE   N11  Fs1  v080
 BYTE   W06
 BYTE   N05  Dn1
 BYTE   W06
 BYTE   N23  Cn1
 BYTE   N11  Dn1
 BYTE   N23  Gn1  v096
 BYTE   N23  Cs2
 BYTE   W12
 BYTE   N11  Dn1  v080
 BYTE   N11  Fs1
 BYTE   W12
 BYTE   N17  Dn1
 BYTE   N11  Fs1
 BYTE   N23  Gn1  v096
 BYTE   W12
 BYTE   N11  Fs1  v080
 BYTE   W06
 BYTE   N05  Dn1
 BYTE   W06
//  #09 //024   ----------------------------------------
 BYTE   N23  Cn1
 BYTE   N11  Dn1
 BYTE   N23  Gn1  v096
 BYTE   N23  Cs2
 BYTE   W12
 BYTE   N11  Dn1  v080
 BYTE   N11  Fs1
 BYTE   W12
 BYTE   N23  Cn1
 BYTE   N11  Dn1
 BYTE   N11  Fs1
 BYTE   N23  Gn1  v096
 BYTE   N23  Cs2
 BYTE   W12
 BYTE   N11  Dn1  v080
 BYTE   N11  Fs1
 BYTE   W12
 BYTE   Dn1
 BYTE   N11  Gn1  v096
 BYTE   N11  As1  v080
 BYTE   W12
 BYTE   Dn1
 BYTE   N11  Gn1  v096
 BYTE   N11  Gs1  v080
 BYTE   W12
 BYTE   N23  Cn1
 BYTE   N05  Dn1
 BYTE   N05  Gn1  v096
 BYTE   N11  As1  v080
 BYTE   N23  An2  v096
 BYTE   W06
 BYTE   N05  Dn1  v080
 BYTE   N11  Gn1  v096
 BYTE   W06
 BYTE   N05  Dn1  v080
 BYTE   N11  Gs1
 BYTE   W06
 BYTE   N05  Dn1
 BYTE   N05  Gn1  v096
 BYTE   W06
//  #09 //025   ----------------------------------------
 BYTE   PATT
  POIN2 Label_0128E4AA
//  #09 //026   ----------------------------------------
 BYTE   PATT
  POIN2 Label_0128E4EB
//  #09 //027   ----------------------------------------
 BYTE   PATT
  POIN2 Label_0128E32B
//  #09 //028   ----------------------------------------
 BYTE   N23  Cn1  v080
 BYTE   N11  Dn1
 BYTE   N23  Fn1  v096
 BYTE   W12
 BYTE   N11  Dn1  v080
 BYTE   N11  Fs1
 BYTE   W12
 BYTE   N23  Cn1
 BYTE   N17  Dn1
 BYTE   N23  Fn1  v096
 BYTE   N11  Fs1  v080
 BYTE   W12
 BYTE   N11
 BYTE   W06
 BYTE   N05  Dn1
 BYTE   W06
 BYTE   N11
 BYTE   N23  Fn1  v096
 BYTE   N23  An2
 BYTE   W12
 BYTE   N11  Dn1  v080
 BYTE   N11  Fs1
 BYTE   W12
 BYTE   N23  Cn1
 BYTE   N05  Dn1
 BYTE   N05  Fn1  v096
 BYTE   N11  Fs1  v080
 BYTE   N23  An2  v096
 BYTE   W06
 BYTE   N11  Dn1  v080
 BYTE   N11  Fn1  v096
 BYTE   W06
 BYTE   Fs1  v080
 BYTE   W06
 BYTE   N05  Dn1
 BYTE   N05  Fn1  v096
 BYTE   W06
//  #09 //029   ----------------------------------------
 BYTE   N23  Cn1  v080
 BYTE   N23  Dn1
 BYTE   N23  Fn1  v096
 BYTE   N23  Cs2
 BYTE   W12
 BYTE   N11  Fs1  v080
 BYTE   W12
 BYTE   N23  Cn1
 BYTE   N17  Dn1
 BYTE   N11  Fs1
 BYTE   W12
 BYTE   N11
 BYTE   W06
 BYTE   N05  Dn1
 BYTE   W06
 BYTE   N11
 BYTE   W12
 BYTE   N11
 BYTE   N11  Fn1  v096
 BYTE   N11  Fs1  v080
 BYTE   W12
 BYTE   N23  Cn1
 BYTE   N11  Dn1
 BYTE   N11  Fs1
 BYTE   W12
 BYTE   Dn1
 BYTE   N11  Fs1
 BYTE   W12
//  #09 //030   ----------------------------------------
 BYTE   N23  Cn1
 BYTE   N11  Dn1
 BYTE   N23  Fn1  v096
 BYTE   W12
 BYTE   N11  Dn1  v080
 BYTE   N11  Fs1
 BYTE   W12
 BYTE   N23  Cn1
 BYTE   N17  Dn1
 BYTE   N23  Fn1  v096
 BYTE   N11  Fs1  v080
 BYTE   W12
 BYTE   N11
 BYTE   W06
 BYTE   N05  Dn1
 BYTE   W06
 BYTE   N11
 BYTE   W12
 BYTE   N11
 BYTE   N11  Fn1  v096
 BYTE   N11  Fs1  v080
 BYTE   W12
 BYTE   N23  Cn1
 BYTE   N05  Dn1
 BYTE   N11  Fs1
 BYTE   W06
 BYTE   N05  Dn1
 BYTE   W06
 BYTE   N05
 BYTE   N11  Fs1
 BYTE   W06
 BYTE   N05  Dn1
 BYTE   W06
//  #09 //031   ----------------------------------------
 BYTE   N23  Cn1
 BYTE   N23  Dn1
 BYTE   N23  Fn1  v096
 BYTE   W12
 BYTE   N11  Fs1  v080
 BYTE   W12
 BYTE   N23  Cn1
 BYTE   N17  Dn1
 BYTE   N11  Fs1
 BYTE   W12
 BYTE   N11
 BYTE   W06
 BYTE   N05  Dn1
 BYTE   W06
 BYTE   N11
 BYTE   N23  Fn1  v096
 BYTE   W12
 BYTE   N11  Dn1  v080
 BYTE   N11  Fs1
 BYTE   W12
 BYTE   N23  Cn1
 BYTE   N11  Dn1
 BYTE   N11  Fs1
 BYTE   W12
 BYTE   Dn1
 BYTE   N11  Fs1
 BYTE   W12
//  #09 //032   ----------------------------------------
 BYTE   N23  Cn1
 BYTE   N11  Dn1
 BYTE   N23  Fn1  v096
 BYTE   W12
 BYTE   N11  Dn1  v080
 BYTE   N11  Fs1
 BYTE   W12
 BYTE   N23  Cn1
 BYTE   N17  Dn1
 BYTE   N11  Fs1
 BYTE   W12
 BYTE   N11
 BYTE   W06
 BYTE   N05  Dn1
 BYTE   W06
 BYTE   N11
 BYTE   N23  Fn1  v096
 BYTE   N23  En2
 BYTE   W12
 BYTE   N11  Dn1  v080
 BYTE   N11  Fs1
 BYTE   W12
 BYTE   N23  Cn1
 BYTE   N05  Dn1
 BYTE   N05  Fn1  v096
 BYTE   N11  Fs1  v080
 BYTE   N23  En2  v096
 BYTE   W06
 BYTE   N11  Dn1  v080
 BYTE   N11  Fn1  v096
 BYTE   W06
 BYTE   Fs1  v080
 BYTE   W06
 BYTE   N05  Dn1
 BYTE   N05  Fn1  v096
 BYTE   W06
//  #09 //033   ----------------------------------------
 BYTE   N23  Cn1  v080
 BYTE   N11  Dn1
 BYTE   N23  Gn1  v096
 BYTE   N23  Gs1  v080
 BYTE   N23  An1  v096
 BYTE   N23  Cs2
 BYTE   W12
 BYTE   N11  Dn1  v080
 BYTE   N11  As1
 BYTE   W12
 BYTE   N05  Dn1
 BYTE   N23  Gs1
 BYTE   W06
 BYTE   N11  Dn1
 BYTE   W06
 BYTE   As1
 BYTE   W06
 BYTE   N05  Dn1
 BYTE   W06
 BYTE   N23  Cn1
 BYTE   N11  Dn1
 BYTE   N23  Gn1  v096
 BYTE   N23  Gs1  v080
 BYTE   N23  An1  v096
 BYTE   W12
 BYTE   N11  Dn1  v080
 BYTE   N11  As1
 BYTE   W12
 BYTE   N05  Dn1
 BYTE   N23  Gs1
 BYTE   W06
 BYTE   N05  Dn1
 BYTE   W06
 BYTE   N05
 BYTE   N11  As1
 BYTE   W06
 BYTE   N05  Dn1
 BYTE   W06
//  #09 //034   ----------------------------------------
 BYTE   N23  Cn1
 BYTE   N11  Dn1
 BYTE   N23  Gn1  v096
 BYTE   N23  Gs1  v080
 BYTE   N23  An1  v096
 BYTE   W12
 BYTE   Dn1  v080
 BYTE   N11  As1
 BYTE   W12
 BYTE   N23  Gs1
 BYTE   W12
 BYTE   Dn1
 BYTE   N11  As1
 BYTE   W12
 BYTE   N23  Cn1
 BYTE   N23  Gn1  v096
 BYTE   N23  Gs1  v080
 BYTE   N23  An1  v096
 BYTE   W12
 BYTE   N11  Dn1  v080
 BYTE   N11  As1
 BYTE   W12
 BYTE   Dn1
 BYTE   N23  Gs1
 BYTE   W12
 BYTE   N05  Dn1
 BYTE   N11  As1
 BYTE   W06
 BYTE   N05  Dn1
 BYTE   W06
//  #09 //035   ----------------------------------------
 BYTE   N23  Cn1
 BYTE   N11  Dn1
 BYTE   N23  Gn1  v096
 BYTE   N23  Gs1  v080
 BYTE   N23  An1  v096
 BYTE   W12
 BYTE   N11  Dn1  v080
 BYTE   N11  As1
 BYTE   W12
 BYTE   Dn1
 BYTE   N23  Gs1
 BYTE   W12
 BYTE   N11  Dn1
 BYTE   N11  As1
 BYTE   W12
 BYTE   N23  Cn1
 BYTE   N05  Dn1
 BYTE   N23  Gn1  v096
 BYTE   N23  Gs1  v080
 BYTE   N23  An1  v096
 BYTE   W06
 BYTE   N05  Dn1  v080
 BYTE   W06
 BYTE   N05
 BYTE   N11  As1
 BYTE   W06
 BYTE   N05  Dn1
 BYTE   W06
 BYTE   N05
 BYTE   N23  Gs1
 BYTE   W06
 BYTE   N11  Dn1
 BYTE   W06
 BYTE   As1
 BYTE   W06
 BYTE   N05  Dn1
 BYTE   W06
//  #09 //036   ----------------------------------------
 BYTE   N23  Cn1
 BYTE   N11  Dn1
 BYTE   N23  Gn1  v096
 BYTE   N23  Gs1  v080
 BYTE   N23  An1  v096
 BYTE   W12
 BYTE   N11  Dn1  v080
 BYTE   N11  As1
 BYTE   W12
 BYTE   N23  Cn1
 BYTE   N11  Dn1
 BYTE   N23  Gn1  v096
 BYTE   N23  Gs1  v080
 BYTE   N23  An1  v096
 BYTE   W12
 BYTE   N11  Dn1  v080
 BYTE   N11  As1
 BYTE   W12
 BYTE   N23  Dn1
 BYTE   N23  Gn1  v096
 BYTE   N23  Gs1  v080
 BYTE   N23  An1  v096
 BYTE   N23  Cs2
 BYTE   W12
 BYTE   N11  As1  v080
 BYTE   W12
 BYTE   N23  Cn1
 BYTE   N05  Dn1
 BYTE   N23  Gn1  v096
 BYTE   N23  Gs1  v080
 BYTE   N23  An1  v096
 BYTE   N23  Cs2
 BYTE   W06
 BYTE   N05  Dn1  v080
 BYTE   W06
 BYTE   N05
 BYTE   N11  As1
 BYTE   W06
 BYTE   N05  Dn1
 BYTE   W06
//  #09 //037   ----------------------------------------
 BYTE   N23  Cn1
 BYTE   N11  Dn1  v120
 BYTE   N23  Gn1  v096
 BYTE   N23  As1  v080
 BYTE   N23  An2  v096
 BYTE   W12
 BYTE   N11  Dn1  v080
 BYTE   W12
 BYTE   N11
 BYTE   W12
 BYTE   Cn1
 BYTE   N11  Dn1  v120
 BYTE   N11  Gn1  v096
 BYTE   N11  An2
 BYTE   W12
 BYTE   Dn1  v080
 BYTE   W12
 BYTE   N11
 BYTE   W12
 BYTE   N23  Cn1
 BYTE   N11  Dn1  v120
 BYTE   N23  Gn1  v096
 BYTE   N23  An2
 BYTE   W12
 BYTE   N11  Dn1  v080
 BYTE   W12
//  #09 //038   ----------------------------------------
 BYTE   PATT
  POIN2 Label_0128E5A3
//  #09 //039   ----------------------------------------
 BYTE   PATT
  POIN2 Label_0128E572
//  #09 //040   ----------------------------------------
 BYTE   PATT
  POIN2 Label_0128E5A3
//  #09 //041   ----------------------------------------
 BYTE   PATT
  POIN2 Label_0128E572
//  #09 //042   ----------------------------------------
 BYTE   N11  Dn1  v080
 BYTE   W12
 BYTE   Cn1
 BYTE   N11  Dn1  v120
 BYTE   N11  Gn1  v096
 BYTE   N11  An2
 BYTE   W12
 BYTE   Dn1  v080
 BYTE   W12
 BYTE   N11
 BYTE   W12
 BYTE   N23  Cn1
 BYTE   N11  Dn1  v120
 BYTE   N23  Gn1  v096
 BYTE   N23  An2
 BYTE   W12
 BYTE   N11  Dn1  v080
 BYTE   W12
 BYTE   N23  Cn1
 BYTE   N05  Dn1
 BYTE   N11  Gn1  v096
 BYTE   N23  An2
 BYTE   W06
 BYTE   N05  Dn1  v120
 BYTE   W06
 BYTE   N02  Dn1  v080
 BYTE   N11  Gn1  v096
 BYTE   W03
 BYTE   N02  Dn1  v080
 BYTE   W03
 BYTE   N02
 BYTE   W03
 BYTE   N02
 BYTE   W03
//  #09 //043   ----------------------------------------
 BYTE   N23  Cn1
 BYTE   N11  Dn1
 BYTE   N23  Fn1  v096
 BYTE   N23  Gs1  v080
 BYTE   N23  An1  v096
 BYTE   N23  En2
 BYTE   W12
 BYTE   N11  Dn1  v080
 BYTE   N11  As1
 BYTE   W12
 BYTE   N02  Dn1
 BYTE   N23  Fn1  v096
 BYTE   N23  Gs1  v080
 BYTE   N23  An1  v096
 BYTE   W02
 BYTE   N02  Dn1  v080
 BYTE   W03
 BYTE   N02
 BYTE   W03
 BYTE   N02
 BYTE   W03
 BYTE   N02
 BYTE   W01
 BYTE   N11  As1
 BYTE   W02
 BYTE   N02  Dn1
 BYTE   W04
 BYTE   N05  Dn1  v120
 BYTE   W06
 BYTE   N23  Cn1  v080
 BYTE   N11  Dn1
 BYTE   N23  Fn1  v096
 BYTE   N23  Gs1  v080
 BYTE   N23  An1  v096
 BYTE   N23  En2
 BYTE   W12
 BYTE   N11  Dn1  v080
 BYTE   N11  As1
 BYTE   W12
 BYTE   N02  Dn1
 BYTE   N23  Fn1  v096
 BYTE   N23  Gs1  v080
 BYTE   N23  An1  v096
 BYTE   W02
 BYTE   N02  Dn1  v080
 BYTE   W03
 BYTE   N02
 BYTE   W03
 BYTE   N02
 BYTE   W03
 BYTE   N02
 BYTE   W01
 BYTE   N11  As1
 BYTE   W02
 BYTE   N02  Dn1
 BYTE   W04
 BYTE   N05  Dn1  v120
 BYTE   W06
//  #09 //044   ----------------------------------------
 BYTE   N23  Cn1  v080
 BYTE   N11  Dn1
 BYTE   N23  Fn1  v096
 BYTE   N23  Gs1  v080
 BYTE   N23  An1  v096
 BYTE   N23  En2
 BYTE   W12
 BYTE   N05  Dn1  v080
 BYTE   N11  As1
 BYTE   W06
 BYTE   N05  Dn1
 BYTE   W06
 BYTE   N11
 BYTE   N23  Fn1  v096
 BYTE   N23  Gs1  v080
 BYTE   N23  An1  v096
 BYTE   W12
 BYTE   N05  Dn1  v080
 BYTE   N11  As1
 BYTE   W06
 BYTE   N05  Dn1
 BYTE   W06
 BYTE   N15  Cn1
 BYTE   N07  Dn1  v120
 BYTE   N15  Fn1  v096
 BYTE   N15  An1
 BYTE   N15  En2
 BYTE   W08
 BYTE   N07  Dn1  v080
 BYTE   W08
 BYTE   N15  Cn1
 BYTE   N07  Dn1  v120
 BYTE   N15  Fn1  v096
 BYTE   N15  An1
 BYTE   N15  An2
 BYTE   W08
 BYTE   N07  Dn1  v080
 BYTE   W08
 BYTE   N15  Cn1
 BYTE   N07  Dn1  v120
 BYTE   N15  Fn1  v096
 BYTE   N15  An1
 BYTE   N15  Cs2
 BYTE   W08
 BYTE   N07  Dn1  v080
 BYTE   W08
//  #09 //045   ----------------------------------------
 BYTE   N23  Cn1
 BYTE   N11  Dn1  v120
 BYTE   N23  Gn1  v096
 BYTE   N23  An2
 BYTE   W12
 BYTE   N11  Dn1  v080
 BYTE   W12
 BYTE   N11
 BYTE   W12
 BYTE   Cn1
 BYTE   N11  Dn1  v120
 BYTE   N11  Gn1  v096
 BYTE   N11  An2
 BYTE   W12
 BYTE   Dn1  v080
 BYTE   W12
 BYTE   N11
 BYTE   W12
 BYTE   N23  Cn1
 BYTE   N05  Dn1
 BYTE   N23  Gn1  v096
 BYTE   N23  An2
 BYTE   W06
 BYTE   N05  Dn1  v120
 BYTE   W06
 BYTE   Dn1  v080
 BYTE   W06
 BYTE   N05
 BYTE   W06
//  #09 //046   ----------------------------------------
 BYTE   N11
 BYTE   W12
 BYTE   Cn1
 BYTE   N11  Dn1  v120
 BYTE   N11  Gn1  v096
 BYTE   N11  An2
 BYTE   W12
 BYTE   Dn1  v080
 BYTE   W12
 BYTE   N11
 BYTE   W12
 BYTE   N23  Cn1
 BYTE   N11  Dn1  v120
 BYTE   N23  Gn1  v096
 BYTE   N23  An2
 BYTE   W12
 BYTE   N05  Dn1  v080
 BYTE   W06
 BYTE   N05
 BYTE   W06
 BYTE   N23  Cn1
 BYTE   N07  Dn1  v120
 BYTE   N07  Gn1  v096
 BYTE   N23  An2
 BYTE   W08
 BYTE   N07  Dn1  v080
 BYTE   N07  Gn1  v096
 BYTE   W08
 BYTE   Dn1  v080
 BYTE   N07  Gn1  v096
 BYTE   W08
//  #09 //047   ----------------------------------------
 BYTE   PATT
  POIN2 Label_0128E572
//  #09 //048   ----------------------------------------
 BYTE   N11  Dn1  v080
 BYTE   W12
 BYTE   Cn1
 BYTE   N11  Dn1  v120
 BYTE   N11  Gn1  v096
 BYTE   N11  An2
 BYTE   W12
 BYTE   Dn1  v080
 BYTE   W12
 BYTE   N11
 BYTE   W12
 BYTE   N23  Cn1
 BYTE   N11  Dn1  v120
 BYTE   N23  Gn1  v096
 BYTE   N11  Gs1  v080
 BYTE   N23  An2  v096
 BYTE   W12
 BYTE   N11  Dn1  v080
 BYTE   N11  As1
 BYTE   W12
 BYTE   N23  Cn1
 BYTE   N05  Dn1
 BYTE   N11  Gn1  v096
 BYTE   N23  An2
 BYTE   W06
 BYTE   N05  Dn1  v120
 BYTE   W06
 BYTE   N02  Dn1  v080
 BYTE   N11  Gn1  v096
 BYTE   N11  As1  v080
 BYTE   W03
 BYTE   N02  Dn1
 BYTE   W03
 BYTE   N02
 BYTE   W03
 BYTE   N02
 BYTE   W03
//  #09 //049   ----------------------------------------
Label_0128EAC9:
 BYTE   N23  Cn1  v080
 BYTE   N11  Dn1
 BYTE   N11  Fs1
 BYTE   N11  Cn2  v096
 BYTE   N23  Cs2
 BYTE   W12
 BYTE   N11  Dn1  v080
 BYTE   N11  Fs1
 BYTE   N11  Cn2  v096
 BYTE   W12
 BYTE   N23  Cn1  v080
 BYTE   N05  Dn1
 BYTE   N11  As1
 BYTE   N11  Bn1  v096
 BYTE   W06
 BYTE   N05  Dn1  v080
 BYTE   W06
 BYTE   N05
 BYTE   N11  Gs1
 BYTE   N11  An1  v096
 BYTE   W06
 BYTE   N05  Dn1  v080
 BYTE   W06
 BYTE   N11
 BYTE   N11  Fs1
 BYTE   W12
 BYTE   Dn1
 BYTE   N11  Fs1
 BYTE   N11  Bn1  v096
 BYTE   W12
 BYTE   N23  Cn1  v080
 BYTE   N05  Dn1
 BYTE   N11  As1
 BYTE   N23  Cn2  v096
 BYTE   W06
 BYTE   N05  Dn1  v080
 BYTE   W06
 BYTE   N05
 BYTE   N11  Gs1
 BYTE   W06
 BYTE   N05  Dn1
 BYTE   W06
 BYTE   PEND 
//  #09 //050   ----------------------------------------
 BYTE   PATT
  POIN2 Label_0128EAC9
//  #09 //051   ----------------------------------------
 BYTE   N23  Cn1  v080
 BYTE   N11  Dn1
 BYTE   N11  Fs1
 BYTE   N11  Cn2  v096
 BYTE   N23  Cs2
 BYTE   W12
 BYTE   N11  Dn1  v080
 BYTE   N11  Fs1
 BYTE   N11  Cn2  v096
 BYTE   W12
 BYTE   N23  Cn1  v080
 BYTE   N05  Dn1
 BYTE   N11  As1
 BYTE   N11  Bn1  v096
 BYTE   W06
 BYTE   N05  Dn1  v080
 BYTE   W06
 BYTE   N05
 BYTE   N11  Gs1
 BYTE   N11  An1  v096
 BYTE   W06
 BYTE   N05  Dn1  v080
 BYTE   W06
 BYTE   N11
 BYTE   N11  Fs1
 BYTE   N23  En2  v096
 BYTE   W12
 BYTE   N11  Dn1  v080
 BYTE   N11  Fs1
 BYTE   N11  Bn1  v096
 BYTE   W12
 BYTE   N23  Cn1  v080
 BYTE   N05  Dn1
 BYTE   N11  As1
 BYTE   N23  Cn2  v096
 BYTE   W06
 BYTE   N05  Dn1  v080
 BYTE   W06
 BYTE   N05
 BYTE   N11  Gs1
 BYTE   W06
 BYTE   N05  Dn1
 BYTE   W06
//  #09 //052   ----------------------------------------
 BYTE   N23  Cn1
 BYTE   N11  Dn1
 BYTE   N11  Fs1
 BYTE   N11  Cn2  v096
 BYTE   N23  An2
 BYTE   W12
 BYTE   N11  Dn1  v080
 BYTE   N11  Fs1
 BYTE   N11  Cn2  v096
 BYTE   W12
 BYTE   N23  Cn1  v080
 BYTE   N05  Dn1
 BYTE   N11  As1
 BYTE   N11  Bn1  v096
 BYTE   W06
 BYTE   Dn1  v080
 BYTE   W06
 BYTE   Gs1
 BYTE   N11  An1  v096
 BYTE   W06
 BYTE   N05  Dn1  v080
 BYTE   W06
 BYTE   N11
 BYTE   N11  Fs1
 BYTE   N11  An1  v096
 BYTE   N23  An2
 BYTE   W12
 BYTE   N05  Dn1  v080
 BYTE   N11  Fs1
 BYTE   N11  Bn1  v096
 BYTE   W06
 BYTE   N05  Dn1  v080
 BYTE   W06
 BYTE   N23  Cn1
 BYTE   N05  Dn1
 BYTE   N05  An1  v096
 BYTE   N11  As1  v080
 BYTE   W06
 BYTE   N05  Dn1
 BYTE   N05  Cn2  v096
 BYTE   W06
 BYTE   N02  Dn1  v080
 BYTE   N11  Gs1
 BYTE   N05  Cn2  v096
 BYTE   W03
 BYTE   N02  Dn1  v080
 BYTE   W03
 BYTE   N02
 BYTE   N05  Cn2  v096
 BYTE   W03
 BYTE   N02  Dn1  v080
 BYTE   W03
//  #09 //053   ----------------------------------------
 BYTE   N23  Cn1
 BYTE   N11  Dn1
 BYTE   N11  Cn2  v096
 BYTE   N23  An2
 BYTE   W12
 BYTE   N11  Dn1  v080
 BYTE   N11  Cn2  v096
 BYTE   W12
 BYTE   N23  Cn1  v080
 BYTE   N11  Dn1
 BYTE   N11  Cn2  v096
 BYTE   W72
//  #09 //054   ----------------------------------------
 BYTE   W48
 BYTE   N23  Cn1  v080
 BYTE   N23  Dn1
 BYTE   N23  Gn1  v096
 BYTE   N23  Cs2
 BYTE   W24
 BYTE   Cn1  v080
 BYTE   N11  Dn1
 BYTE   N23  Gn1  v096
 BYTE   N23  En2
 BYTE   W12
 BYTE   N05  Dn1  v080
 BYTE   W06
 BYTE   N05
 BYTE   W06
//  #09 //055   ----------------------------------------
 BYTE   N11
 BYTE   N23  Cn2  v096
 BYTE   W12
 BYTE   N11  Dn1  v080
 BYTE   N11  En2  v096
 BYTE   W12
 BYTE   N23  Cn2
 BYTE   W12
 BYTE   N11  Dn1  v080
 BYTE   W12
 BYTE   N23  Cn1
 BYTE   N11  Dn1
 BYTE   N23  Bn1  v096
 BYTE   N23  En2
 BYTE   W12
 BYTE   N11  Dn1  v080
 BYTE   W12
 BYTE   N23  An1  v096
 BYTE   W12
 BYTE   N11  Dn1  v080
 BYTE   N23  Cs2  v096
 BYTE   W12
//  #09 //056   ----------------------------------------
 BYTE   Cn1  v080
 BYTE   N23  Bn1  v096
 BYTE   W12
 BYTE   N11  Dn1  v080
 BYTE   N32  En2  v096
 BYTE   W12
 BYTE   N23  An1
 BYTE   W12
 BYTE   N11  Dn1  v080
 BYTE   W12
 BYTE   N15  Cn1
 BYTE   N15  Dn1
 BYTE   N15  Fn1  v096
 BYTE   N23  En2
 BYTE   W16
 BYTE   N15  Cn1  v080
 BYTE   N15  Dn1
 BYTE   N15  Fn1  v096
 BYTE   W08
 BYTE   N23  En2
 BYTE   W08
 BYTE   N15  Cn1  v080
 BYTE   N15  Dn1
 BYTE   N15  Fn1  v096
 BYTE   W16
//  #09 //057   ----------------------------------------
 BYTE   N11  Cn1  v080
 BYTE   N11  Dn1
 BYTE   N11  Fn1  v096
 BYTE   N11  An1
 BYTE   N23  An2
 BYTE   W12
 BYTE   N11  Cn1  v080
 BYTE   N05  Dn1
 BYTE   N11  Fn1  v096
 BYTE   N11  An1
 BYTE   W06
 BYTE   N05  Dn1  v080
 BYTE   W06
 BYTE   N11  Cn1
 BYTE   N11  Dn1
 BYTE   N11  Fn1  v096
 BYTE   N11  An1
 BYTE   W36
 BYTE   Cn1  v080
 BYTE   N11  Dn1
 BYTE   N11  Fn1  v096
 BYTE   N11  An1
 BYTE   N11  Cs2
 BYTE   W36
//  #09 //058   ----------------------------------------
 BYTE   W24
 BYTE   N23  Cn1  v080
 BYTE   N23  Dn1
 BYTE   N23  Fn1  v096
 BYTE   N23  An1
 BYTE   N23  An2
 BYTE   W24
 BYTE   Cn1  v080
 BYTE   N23  Dn1
 BYTE   N23  Fn1  v096
 BYTE   N23  An1
 BYTE   N23  An2
 BYTE   W24
 BYTE   Cn1  v080
 BYTE   N23  Dn1
 BYTE   N23  Fn1  v096
 BYTE   N23  An1
 BYTE   N23  An2
 BYTE   W24
//  #09 //059   ----------------------------------------
 BYTE   Cn1  v080
 BYTE   N11  Dn1
 BYTE   N23  Fn1  v096
 BYTE   N23  Gs1  v080
 BYTE   N23  An1  v096
 BYTE   N23  Cs2
 BYTE   W12
 BYTE   N11  Dn1  v080
 BYTE   N11  As1
 BYTE   W12
 BYTE   N23  Cn1
 BYTE   N23  Fn1  v096
 BYTE   N23  Gs1  v080
 BYTE   N23  An1  v096
 BYTE   W12
 BYTE   N11  Dn1  v080
 BYTE   N11  As1
 BYTE   W12
 BYTE   N23  Cn1
 BYTE   N11  Dn1
 BYTE   N23  Fn1  v096
 BYTE   N23  Gs1  v080
 BYTE   N23  An1  v096
 BYTE   N23  An2
 BYTE   W12
 BYTE   N11  Dn1  v080
 BYTE   N11  As1
 BYTE   W12
 BYTE   N23  Cn1
 BYTE   N23  Fn1  v096
 BYTE   N23  Gs1  v080
 BYTE   N23  An1  v096
 BYTE   W12
 BYTE   N11  Dn1  v080
 BYTE   N11  As1
 BYTE   W12
//  #09 //060   ----------------------------------------
 BYTE   N23  Cn1
 BYTE   N23  Fn1  v096
 BYTE   N23  Gs1  v080
 BYTE   N23  An1  v096
 BYTE   N23  An2
 BYTE   W12
 BYTE   N11  Dn1  v080
 BYTE   N11  As1
 BYTE   W12
 BYTE   N23  Cn1
 BYTE   N23  Fn1  v096
 BYTE   N23  Gs1  v080
 BYTE   N23  An1  v096
 BYTE   W12
 BYTE   N11  Dn1  v080
 BYTE   N11  As1
 BYTE   W12
 BYTE   N23  Cn1
 BYTE   N11  Dn1
 BYTE   N23  Gs1
 BYTE   N11  Bn1  v096
 BYTE   N23  An2
 BYTE   W12
 BYTE   N11  Dn1  v080
 BYTE   N11  As1
 BYTE   N11  Bn1  v096
 BYTE   W12
 BYTE   N23  Cn1  v080
 BYTE   N05  Dn1
 BYTE   N23  Gs1
 BYTE   N05  An1  v096
 BYTE   N23  An2
 BYTE   W06
 BYTE   N05  Dn1  v080
 BYTE   N05  An1  v096
 BYTE   W06
 BYTE   Dn1  v080
 BYTE   N05  Gn1  v096
 BYTE   N11  As1  v080
 BYTE   W06
 BYTE   N05  Dn1
 BYTE   N05  Gn1  v096
 BYTE   W06
//  #09 //061   ----------------------------------------
 BYTE   PATT
  POIN2 Label_0128E2B0
//  #09 //062   ----------------------------------------
 BYTE   PATT
  POIN2 Label_0128E2EE
//  #09 //063   ----------------------------------------
 BYTE   PATT
  POIN2 Label_0128E32B
//  #09 //064   ----------------------------------------
 BYTE   PATT
  POIN2 Label_0128E366
//  #09 //065   ----------------------------------------
 BYTE   GoTo
  POIN2 Label_0128E3A8
 BYTE   FINE

//******************************************************//
	ALIGN 4

song1C:
	BYTE	9	// NumTrks
	BYTE	0	// NumBlks
	BYTE	song1C_pri	// Priority
	BYTE	song1C_rev	// Reverb.
    
	POIN2	song1C_grp
    
	POIN2	song1C_001
	POIN2	song1C_002
	POIN2	song1C_003
	POIN2	song1C_004
	POIN2	song1C_005
	POIN2	song1C_006
	POIN2	song1C_007
	POIN2	song1C_008
	POIN2	song1C_009

	
